<svg width="197" height="32" viewBox="0 0 197 32" fill="none" xmlns="http://www.w3.org/2000/svg">
<rect width="32" height="32" rx="6" fill="url(#paint0_linear_34_118)"/>
<path d="M10.7757 9.65937C13.44 7.52774 16.4173 6.37387 19.0445 6.19162C21.6765 6.00908 23.8539 6.79741 25.1436 8.40935C26.4333 10.0213 26.7246 12.3186 25.969 14.8465C25.2147 17.3697 23.4356 20.0212 20.7713 22.1528C18.107 24.2845 15.1297 25.4383 12.5025 25.6206C9.87048 25.8031 7.69307 25.0148 6.4034 23.4028C5.11373 21.7909 4.8224 19.4936 5.57803 16.9657C6.33232 14.4425 8.11137 11.791 10.7757 9.65937Z" stroke="white" stroke-width="2"/>
<path d="M41.54 24V9.1H43.9V21.9H50.34V24H41.54ZM52.3213 24V9.1H54.6813V21.9H61.1213V24H52.3213ZM63.1025 24V9.1H65.3025L70.9025 16.86H69.8025L75.3025 9.1H77.5025V24H75.1625V11.88L76.0425 12.12L70.4225 19.8H70.1825L64.6825 12.12L65.4625 11.88V24H63.1025ZM79.263 24L84.503 9.1H87.423L92.663 24H90.143L89.003 20.66H82.943L81.783 24H79.263ZM83.623 18.56H88.283L85.643 10.76H86.303L83.623 18.56ZM94.2106 28V13.18H96.3706V15.42L96.1106 14.9C96.5106 14.2867 97.044 13.8067 97.7106 13.46C98.3773 13.1133 99.1373 12.94 99.9906 12.94C101.017 12.94 101.937 13.1867 102.751 13.68C103.577 14.1733 104.224 14.8467 104.691 15.7C105.171 16.5533 105.411 17.5133 105.411 18.58C105.411 19.6467 105.171 20.6067 104.691 21.46C104.224 22.3133 103.584 22.9933 102.771 23.5C101.957 23.9933 101.031 24.24 99.9906 24.24C99.1506 24.24 98.384 24.0667 97.6906 23.72C97.0106 23.3733 96.484 22.8733 96.1106 22.22L96.4706 21.8V28H94.2106ZM99.7706 22.14C100.411 22.14 100.977 21.9867 101.471 21.68C101.964 21.3733 102.351 20.9533 102.631 20.42C102.924 19.8733 103.071 19.26 103.071 18.58C103.071 17.9 102.924 17.2933 102.631 16.76C102.351 16.2267 101.964 15.8067 101.471 15.5C100.977 15.1933 100.411 15.04 99.7706 15.04C99.144 15.04 98.5773 15.1933 98.0706 15.5C97.5773 15.8067 97.184 16.2267 96.8906 16.76C96.6106 17.2933 96.4706 17.9 96.4706 18.58C96.4706 19.26 96.6106 19.8733 96.8906 20.42C97.184 20.9533 97.5773 21.3733 98.0706 21.68C98.5773 21.9867 99.144 22.14 99.7706 22.14ZM107.609 28V13.18H109.769V15.42L109.509 14.9C109.909 14.2867 110.442 13.8067 111.109 13.46C111.776 13.1133 112.536 12.94 113.389 12.94C114.416 12.94 115.336 13.1867 116.149 13.68C116.976 14.1733 117.622 14.8467 118.089 15.7C118.569 16.5533 118.809 17.5133 118.809 18.58C118.809 19.6467 118.569 20.6067 118.089 21.46C117.622 22.3133 116.982 22.9933 116.169 23.5C115.356 23.9933 114.429 24.24 113.389 24.24C112.549 24.24 111.782 24.0667 111.089 23.72C110.409 23.3733 109.882 22.8733 109.509 22.22L109.869 21.8V28H107.609ZM113.169 22.14C113.809 22.14 114.376 21.9867 114.869 21.68C115.362 21.3733 115.749 20.9533 116.029 20.42C116.322 19.8733 116.469 19.26 116.469 18.58C116.469 17.9 116.322 17.2933 116.029 16.76C115.749 16.2267 115.362 15.8067 114.869 15.5C114.376 15.1933 113.809 15.04 113.169 15.04C112.542 15.04 111.976 15.1933 111.469 15.5C110.976 15.8067 110.582 16.2267 110.289 16.76C110.009 17.2933 109.869 17.9 109.869 18.58C109.869 19.26 110.009 19.8733 110.289 20.42C110.582 20.9533 110.976 21.3733 111.469 21.68C111.976 21.9867 112.542 22.14 113.169 22.14Z" fill="white"/>
<path d="M128.562 24.168C127.918 24.168 127.335 24.0233 126.812 23.734C126.299 23.4353 125.911 23.0153 125.65 22.474L125.818 22.32V24H124.768V13.402H125.818V18.176L125.65 17.882C125.949 17.406 126.345 17.028 126.84 16.748C127.344 16.468 127.918 16.328 128.562 16.328C129.271 16.328 129.901 16.5007 130.452 16.846C131.012 17.182 131.451 17.644 131.768 18.232C132.095 18.82 132.258 19.492 132.258 20.248C132.258 20.9947 132.095 21.6667 131.768 22.264C131.451 22.852 131.012 23.3187 130.452 23.664C129.901 24 129.271 24.168 128.562 24.168ZM128.506 23.118C129.01 23.118 129.458 22.992 129.85 22.74C130.251 22.488 130.564 22.1473 130.788 21.718C131.021 21.2793 131.138 20.7893 131.138 20.248C131.138 19.6973 131.021 19.2073 130.788 18.778C130.564 18.3487 130.251 18.008 129.85 17.756C129.458 17.504 129.01 17.378 128.506 17.378C128.002 17.378 127.545 17.504 127.134 17.756C126.733 18.008 126.411 18.3533 126.168 18.792C125.935 19.2213 125.818 19.7067 125.818 20.248C125.818 20.7893 125.935 21.2793 126.168 21.718C126.411 22.1473 126.733 22.488 127.134 22.74C127.545 22.992 128.002 23.118 128.506 23.118ZM134.123 27.08C133.974 27.08 133.82 27.066 133.661 27.038C133.512 27.0193 133.362 26.982 133.213 26.926V25.946C133.306 25.9553 133.423 25.9693 133.563 25.988C133.712 26.016 133.862 26.03 134.011 26.03C134.468 26.03 134.818 25.932 135.061 25.736C135.304 25.5493 135.542 25.1853 135.775 24.644L136.251 23.524L136.223 24.448L133.045 16.496H134.179L136.783 23.062H136.489L139.079 16.496H140.241L136.811 24.952C136.662 25.316 136.47 25.6613 136.237 25.988C136.013 26.3147 135.728 26.576 135.383 26.772C135.038 26.9773 134.618 27.08 134.123 27.08ZM148.768 24.168C148.031 24.168 147.354 24.0373 146.738 23.776C146.122 23.5053 145.585 23.132 145.128 22.656C144.68 22.1707 144.33 21.6013 144.078 20.948C143.826 20.2947 143.7 19.576 143.7 18.792C143.7 18.008 143.826 17.2893 144.078 16.636C144.33 15.9827 144.68 15.4133 145.128 14.928C145.585 14.4427 146.122 14.0693 146.738 13.808C147.354 13.5373 148.031 13.402 148.768 13.402C149.477 13.402 150.112 13.528 150.672 13.78C151.241 14.032 151.717 14.3587 152.1 14.76C152.492 15.152 152.772 15.5673 152.94 16.006L151.89 16.468C151.629 15.8613 151.227 15.376 150.686 15.012C150.154 14.6387 149.515 14.452 148.768 14.452C148.003 14.452 147.321 14.634 146.724 14.998C146.127 15.362 145.66 15.8707 145.324 16.524C144.988 17.168 144.82 17.924 144.82 18.792C144.82 19.6507 144.988 20.4067 145.324 21.06C145.66 21.7133 146.127 22.222 146.724 22.586C147.321 22.9407 148.003 23.118 148.768 23.118C149.515 23.118 150.154 22.936 150.686 22.572C151.227 22.208 151.629 21.7227 151.89 21.116L152.94 21.578C152.772 22.0073 152.492 22.4227 152.1 22.824C151.717 23.216 151.241 23.538 150.672 23.79C150.112 24.042 149.477 24.168 148.768 24.168ZM154.791 24V13.402H155.841V24H154.791ZM161.407 24.168C160.707 24.168 160.072 24 159.503 23.664C158.943 23.3187 158.499 22.8473 158.173 22.25C157.846 21.6527 157.683 20.976 157.683 20.22C157.683 19.464 157.841 18.7967 158.159 18.218C158.476 17.63 158.905 17.168 159.447 16.832C159.997 16.496 160.613 16.328 161.295 16.328C161.836 16.328 162.317 16.4307 162.737 16.636C163.166 16.832 163.53 17.1027 163.829 17.448C164.127 17.784 164.356 18.1667 164.515 18.596C164.673 19.016 164.753 19.45 164.753 19.898C164.753 19.9913 164.748 20.0987 164.739 20.22C164.729 20.332 164.715 20.4487 164.697 20.57H158.355V19.59H164.095L163.591 20.01C163.675 19.4967 163.614 19.0393 163.409 18.638C163.213 18.2273 162.928 17.9053 162.555 17.672C162.181 17.4293 161.761 17.308 161.295 17.308C160.828 17.308 160.394 17.4293 159.993 17.672C159.601 17.9147 159.293 18.2553 159.069 18.694C158.845 19.1233 158.756 19.6367 158.803 20.234C158.756 20.8313 158.849 21.354 159.083 21.802C159.325 22.2407 159.652 22.5813 160.063 22.824C160.483 23.0667 160.931 23.188 161.407 23.188C161.957 23.188 162.419 23.0573 162.793 22.796C163.166 22.5347 163.469 22.208 163.703 21.816L164.599 22.292C164.449 22.628 164.221 22.9407 163.913 23.23C163.605 23.51 163.236 23.7387 162.807 23.916C162.387 24.084 161.92 24.168 161.407 24.168ZM168.469 24L165.543 16.496H166.719L169.183 23.076H168.805L171.283 16.496H172.473L169.519 24H168.469ZM176.979 24.168C176.279 24.168 175.644 24 175.075 23.664C174.515 23.3187 174.072 22.8473 173.745 22.25C173.418 21.6527 173.255 20.976 173.255 20.22C173.255 19.464 173.414 18.7967 173.731 18.218C174.048 17.63 174.478 17.168 175.019 16.832C175.57 16.496 176.186 16.328 176.867 16.328C177.408 16.328 177.889 16.4307 178.309 16.636C178.738 16.832 179.102 17.1027 179.401 17.448C179.7 17.784 179.928 18.1667 180.087 18.596C180.246 19.016 180.325 19.45 180.325 19.898C180.325 19.9913 180.32 20.0987 180.311 20.22C180.302 20.332 180.288 20.4487 180.269 20.57H173.927V19.59H179.667L179.163 20.01C179.247 19.4967 179.186 19.0393 178.981 18.638C178.785 18.2273 178.5 17.9053 178.127 17.672C177.754 17.4293 177.334 17.308 176.867 17.308C176.4 17.308 175.966 17.4293 175.565 17.672C175.173 17.9147 174.865 18.2553 174.641 18.694C174.417 19.1233 174.328 19.6367 174.375 20.234C174.328 20.8313 174.422 21.354 174.655 21.802C174.898 22.2407 175.224 22.5813 175.635 22.824C176.055 23.0667 176.503 23.188 176.979 23.188C177.53 23.188 177.992 23.0573 178.365 22.796C178.738 22.5347 179.042 22.208 179.275 21.816L180.171 22.292C180.022 22.628 179.793 22.9407 179.485 23.23C179.177 23.51 178.808 23.7387 178.379 23.916C177.959 24.084 177.492 24.168 176.979 24.168ZM182.176 24V16.496H183.226V17.728L183.086 17.546C183.263 17.1913 183.529 16.9113 183.884 16.706C184.248 16.5007 184.687 16.398 185.2 16.398H185.676V17.448H185.018C184.477 17.448 184.043 17.616 183.716 17.952C183.389 18.288 183.226 18.764 183.226 19.38V24H182.176ZM187.061 24V13.57H188.181V24H187.061ZM192.449 24V14.62H189.565V13.57H196.425V14.62H193.569V24H192.449Z" fill="#9CA3AF"/>
<defs>
<linearGradient id="paint0_linear_34_118" x1="0" y1="16" x2="32" y2="16" gradientUnits="userSpaceOnUse">
<stop stop-color="#EC4899"/>
<stop offset="1" stop-color="#9333EA"/>
</linearGradient>
</defs>
</svg>
