<svg width="381" height="310" viewBox="0 0 381 310" fill="none" xmlns="http://www.w3.org/2000/svg">
<mask id="mask0_28_454" style="mask-type:luminance" maskUnits="userSpaceOnUse" x="81" y="51" width="219" height="208">
<path d="M299.439 51H81.4395V259H299.439V51Z" fill="white"/>
</mask>
<g mask="url(#mask0_28_454)">
<path d="M215.439 76C215.439 62.1929 204.247 51 190.439 51C176.632 51 165.439 62.1929 165.439 76C165.439 89.8071 176.632 101 190.439 101C204.247 101 215.439 89.8071 215.439 76Z" fill="url(#paint0_linear_28_454)"/>
<path d="M289.44 122H166.928C161.405 122 156.928 126.477 156.928 132C156.928 137.523 161.405 142 166.928 142H289.44C294.963 142 299.44 137.523 299.44 132C299.44 126.477 294.963 122 289.44 122Z" fill="#28C3BA"/>
<path d="M114.306 154.553H91.4395C85.9166 154.553 81.4395 159.03 81.4395 164.553C81.4395 170.076 85.9166 174.553 91.4395 174.553H114.306C119.829 174.553 124.306 170.076 124.306 164.553C124.306 159.03 119.829 154.553 114.306 154.553Z" fill="#F056B9" fill-opacity="0.9"/>
<path d="M187.014 182.553H91.4395C85.9166 182.553 81.4395 187.03 81.4395 192.553C81.4395 198.076 85.9166 202.553 91.4395 202.553H187.014C192.537 202.553 197.014 198.076 197.014 192.553C197.014 187.03 192.537 182.553 187.014 182.553Z" fill="#F056B9" fill-opacity="0.6"/>
<path d="M167.754 210.553H91.4395C85.9166 210.553 81.4395 215.03 81.4395 220.553C81.4395 226.076 85.9166 230.553 91.4395 230.553H167.754C173.277 230.553 177.754 226.076 177.754 220.553C177.754 215.03 173.277 210.553 167.754 210.553Z" fill="#F056B9" fill-opacity="0.3"/>
<path d="M213.951 238.553H91.4395C85.9166 238.553 81.4395 243.03 81.4395 248.553C81.4395 254.076 85.9166 258.553 91.4395 258.553H213.951C219.474 258.553 223.951 254.076 223.951 248.553C223.951 243.03 219.474 238.553 213.951 238.553Z" fill="#F056B9" fill-opacity="0.2"/>
</g>
<defs>
<linearGradient id="paint0_linear_28_454" x1="165.439" y1="76" x2="215.439" y2="76" gradientUnits="userSpaceOnUse">
<stop stop-color="#F0479B"/>
<stop offset="1" stop-color="#9E1FE6"/>
</linearGradient>
</defs>
</svg>
