<svg width="380" height="310" viewBox="0 0 380 310" fill="none" xmlns="http://www.w3.org/2000/svg">
<rect width="380" height="310" rx="20" fill="black"/>
<rect x="160" y="35.5" width="60" height="60" rx="13" fill="url(#paint0_linear_26_564)"/>
<path d="M154.317 122.5V107.6H157.037V120.1H163.417V122.5H154.317ZM164.416 122.5V107.6H167.136V120.1H173.516V122.5H164.416ZM174.515 122.5V107.6H177.115L182.695 115.18H181.455L186.915 107.6H189.515V122.5H186.775V110.7L187.835 110.96L182.175 118.5H181.855L176.335 110.96L177.235 110.7V122.5H174.515ZM194.687 122.74C193.927 122.74 193.267 122.613 192.707 122.36C192.147 122.107 191.714 121.747 191.407 121.28C191.1 120.8 190.947 120.247 190.947 119.62C190.947 119.02 191.08 118.487 191.347 118.02C191.614 117.54 192.027 117.14 192.587 116.82C193.147 116.5 193.854 116.273 194.707 116.14L198.267 115.56V117.56L195.207 118.08C194.687 118.173 194.3 118.34 194.047 118.58C193.794 118.82 193.667 119.133 193.667 119.52C193.667 119.893 193.807 120.193 194.087 120.42C194.38 120.633 194.74 120.74 195.167 120.74C195.714 120.74 196.194 120.627 196.607 120.4C197.034 120.16 197.36 119.833 197.587 119.42C197.827 119.007 197.947 118.553 197.947 118.06V115.26C197.947 114.793 197.76 114.407 197.387 114.1C197.027 113.78 196.547 113.62 195.947 113.62C195.387 113.62 194.887 113.773 194.447 114.08C194.02 114.373 193.707 114.767 193.507 115.26L191.367 114.22C191.58 113.647 191.914 113.153 192.367 112.74C192.834 112.313 193.38 111.98 194.007 111.74C194.634 111.5 195.314 111.38 196.047 111.38C196.94 111.38 197.727 111.547 198.407 111.88C199.087 112.2 199.614 112.653 199.987 113.24C200.374 113.813 200.567 114.487 200.567 115.26V122.5H198.087V120.64L198.647 120.6C198.367 121.067 198.034 121.46 197.647 121.78C197.26 122.087 196.82 122.327 196.327 122.5C195.834 122.66 195.287 122.74 194.687 122.74ZM202.228 126.5V111.62H204.688V113.78L204.448 113.24C204.822 112.653 205.328 112.2 205.968 111.88C206.608 111.547 207.348 111.38 208.188 111.38C209.215 111.38 210.142 111.633 210.968 112.14C211.795 112.647 212.448 113.327 212.928 114.18C213.422 115.033 213.668 115.993 213.668 117.06C213.668 118.113 213.428 119.073 212.948 119.94C212.468 120.807 211.815 121.493 210.988 122C210.162 122.493 209.222 122.74 208.168 122.74C207.382 122.74 206.655 122.587 205.988 122.28C205.335 121.96 204.815 121.507 204.428 120.92L204.848 120.4V126.5H202.228ZM207.868 120.34C208.468 120.34 209.002 120.2 209.468 119.92C209.935 119.64 210.295 119.253 210.548 118.76C210.815 118.267 210.948 117.7 210.948 117.06C210.948 116.42 210.815 115.86 210.548 115.38C210.295 114.887 209.935 114.5 209.468 114.22C209.002 113.927 208.468 113.78 207.868 113.78C207.295 113.78 206.775 113.92 206.308 114.2C205.855 114.48 205.495 114.873 205.228 115.38C204.975 115.873 204.848 116.433 204.848 117.06C204.848 117.7 204.975 118.267 205.228 118.76C205.495 119.253 205.855 119.64 206.308 119.92C206.775 120.2 207.295 120.34 207.868 120.34ZM214.906 126.5V111.62H217.366V113.78L217.126 113.24C217.499 112.653 218.006 112.2 218.646 111.88C219.286 111.547 220.026 111.38 220.866 111.38C221.893 111.38 222.819 111.633 223.646 112.14C224.473 112.647 225.126 113.327 225.606 114.18C226.099 115.033 226.346 115.993 226.346 117.06C226.346 118.113 226.106 119.073 225.626 119.94C225.146 120.807 224.493 121.493 223.666 122C222.839 122.493 221.899 122.74 220.846 122.74C220.059 122.74 219.333 122.587 218.666 122.28C218.013 121.96 217.493 121.507 217.106 120.92L217.526 120.4V126.5H214.906ZM220.546 120.34C221.146 120.34 221.679 120.2 222.146 119.92C222.613 119.64 222.973 119.253 223.226 118.76C223.493 118.267 223.626 117.7 223.626 117.06C223.626 116.42 223.493 115.86 223.226 115.38C222.973 114.887 222.613 114.5 222.146 114.22C221.679 113.927 221.146 113.78 220.546 113.78C219.973 113.78 219.453 113.92 218.986 114.2C218.533 114.48 218.173 114.873 217.906 115.38C217.653 115.873 217.526 116.433 217.526 117.06C217.526 117.7 217.653 118.267 217.906 118.76C218.173 119.253 218.533 119.64 218.986 119.92C219.453 120.2 219.973 120.34 220.546 120.34Z" fill="white"/>
<path d="M190 265.167C195.154 265.167 199.333 260.988 199.333 255.833C199.333 250.679 195.154 246.5 190 246.5C184.845 246.5 180.667 250.679 180.667 255.833C180.667 260.988 184.845 265.167 190 265.167Z" fill="#9E1FE6"/>
<path d="M190 190.5C195.154 190.5 199.333 186.321 199.333 181.167C199.333 176.012 195.154 171.833 190 171.833C184.845 171.833 180.667 176.012 180.667 181.167C180.667 186.321 184.845 190.5 190 190.5Z" fill="#9E1FE6"/>
<path d="M163.6 254.233C168.755 254.233 172.934 250.054 172.934 244.899C172.934 239.745 168.755 235.566 163.6 235.566C158.446 235.566 154.267 239.745 154.267 244.899C154.267 250.054 158.446 254.233 163.6 254.233Z" fill="#9E1FE6"/>
<path d="M216.399 201.434C221.554 201.434 225.733 197.255 225.733 192.101C225.733 186.946 221.554 182.767 216.399 182.767C211.245 182.767 207.066 186.946 207.066 192.101C207.066 197.255 211.245 201.434 216.399 201.434Z" fill="#9E1FE6"/>
<path d="M152.667 227.838C157.824 227.838 162.005 223.657 162.005 218.5C162.005 213.343 157.824 209.162 152.667 209.162C147.509 209.162 143.329 213.343 143.329 218.5C143.329 223.657 147.509 227.838 152.667 227.838Z" fill="#9E1FE6"/>
<path d="M227.333 227.833C232.488 227.833 236.667 223.655 236.667 218.5C236.667 213.345 232.488 209.167 227.333 209.167C222.179 209.167 218 213.345 218 218.5C218 223.655 222.179 227.833 227.333 227.833Z" fill="#9E1FE6"/>
<path d="M163.6 201.439C168.755 201.439 172.934 197.26 172.934 192.105C172.934 186.951 168.755 182.772 163.6 182.772C158.446 182.772 154.267 186.951 154.267 192.105C154.267 197.26 158.446 201.439 163.6 201.439Z" fill="#9E1FE6"/>
<path d="M216.399 254.237C221.554 254.237 225.733 250.059 225.733 244.904C225.733 239.749 221.554 235.571 216.399 235.571C211.245 235.571 207.066 239.749 207.066 244.904C207.066 250.059 211.245 254.237 216.399 254.237Z" fill="#9E1FE6"/>
<defs>
<linearGradient id="paint0_linear_26_564" x1="160" y1="65.5" x2="220" y2="65.5" gradientUnits="userSpaceOnUse">
<stop stop-color="#F0479B"/>
<stop offset="1" stop-color="#9E1FE6"/>
</linearGradient>
</defs>
</svg>
