<svg width="773" height="100" viewBox="0 0 773 100" fill="none" xmlns="http://www.w3.org/2000/svg">
<mask id="mask0_2004_22" style="mask-type:luminance" maskUnits="userSpaceOnUse" x="0" y="0" width="772" height="100">
<path d="M771.833 0H0V99.9221H771.833V0Z" fill="white"/>
</mask>
<g mask="url(#mask0_2004_22)">
<path d="M43.6205 73.0366C30.3227 71.4247 20.9539 61.8544 20.9539 49.4634C20.9539 44.4264 22.7673 38.9864 25.7895 35.3598C24.4799 32.0354 24.6814 24.9836 26.1924 22.0621C30.222 21.5584 35.662 23.6739 38.8857 26.5954C42.7138 25.3865 46.7434 24.7821 51.6797 24.7821C56.616 24.7821 60.6456 25.3865 64.2722 26.4946C67.3952 23.6739 72.9359 21.5584 76.9655 22.0621C78.3758 24.7821 78.5773 31.8339 77.2677 35.2591C80.4914 39.0872 82.2039 44.2249 82.2039 49.4634C82.2039 61.8544 72.8352 71.2233 59.3359 72.9359C62.7611 75.1521 65.0781 79.9877 65.0781 85.5284V96.0054C65.0781 99.0276 67.5966 100.74 70.6188 99.5313C88.8528 92.5802 103.158 74.3462 103.158 51.7804C103.158 23.2709 79.9877 2.51199e-07 51.4782 0C22.9687 -2.51199e-07 2.512e-07 23.2709 0 51.7804C-1.97054e-07 74.1447 14.2043 92.6809 33.3449 99.632C36.0649 100.639 38.6842 98.8261 38.6842 96.1061V88.0468C37.2739 88.6514 35.4605 89.0543 33.8486 89.0543C27.1998 89.0543 23.2709 85.4277 20.4502 78.678C19.3421 75.9581 18.1333 74.3462 15.8162 74.044C14.6074 73.9433 14.2043 73.4396 14.2043 72.8351C14.2043 71.6262 16.2192 70.7196 18.234 70.7196C21.1555 70.7196 23.6739 72.5329 26.2932 76.2603C28.308 79.1818 30.4235 80.4914 32.942 80.4914C35.4605 80.4914 37.0723 79.5847 39.3894 77.2677C41.102 75.555 42.4116 74.044 43.6205 73.0366Z" fill="white"/>
<mask id="mask1_2004_22" style="mask-type:luminance" maskUnits="userSpaceOnUse" x="123" y="9" width="314" height="81">
<path d="M436.896 9.99219H123.141V89.9299H436.896V9.99219Z" fill="white"/>
</mask>
<g mask="url(#mask1_2004_22)">
<path d="M198.669 87.3728V35.0341H213.383V87.3728H198.669ZM241.91 87.3728C232.132 87.3728 228.313 83.182 228.313 74.3347V47.3271H219.001V35.0341H228.313V24.6035L243.028 21.1577V35.0341H253.924V47.3271H243.028V71.0751C243.028 73.9622 244.332 75.0797 247.219 75.0797H253.924V87.3728H241.91ZM344.493 88.3041C333.039 88.3041 326.799 81.9713 326.799 70.4232V35.0341H341.607V66.5118C341.607 72.9377 344.493 76.4767 349.988 76.4767C356.321 76.4767 361.164 70.6095 361.164 62.6004V35.0341H375.971V87.3728H361.164V78.5255C358.37 84.2064 351.665 88.3041 344.493 88.3041ZM415.17 88.3041C408.032 88.3041 401.513 84.2064 398.407 78.3392V87.3728H383.692V14.3593H398.5V44.6264C401.513 38.2935 408.312 33.8233 415.17 33.8233C429.452 33.8233 436.996 43.6951 436.496 61.1103C436.996 78.3392 429.173 88.3041 415.17 88.3041ZM409.954 75.9178C417.625 75.9178 421.816 70.237 421.316 61.1103C421.816 51.8905 417.625 46.2095 409.954 46.2095C403.842 46.2095 399 52.1698 398.5 60.3652V61.2034C399 69.6782 403.842 75.9178 409.954 75.9178ZM303.719 14.3593V43.9745H275.966V14.3593H260.134V87.3728H275.966V58.1302H303.719V87.3728H319.551V14.3593H303.719ZM158.344 88.7697C136.737 88.7697 123.141 73.9622 123.141 50.7729C123.141 27.5836 137.017 12.9624 158.995 12.9624C176.876 12.9624 187.68 20.5989 191.125 33.4508L175.107 37.2691C173.151 30.2844 167.564 26.4661 158.995 26.4661C146.236 26.4661 139.345 34.8477 139.345 50.7729C139.345 66.6981 146.05 75.2659 158.623 75.2659C170.171 75.2659 177.063 68.1882 177.063 56.1744V53.3806L181.161 59.0614H157.32V45.6508H193.081V54.1255C193.081 76.3835 180.136 88.7697 158.344 88.7697ZM206.026 30.0982C210.962 30.0982 214.781 26.2798 214.781 21.3439C214.781 16.4082 210.962 12.5898 206.026 12.5898C201.09 12.5898 197.272 16.4082 197.272 21.3439C197.272 26.2798 201.09 30.0982 206.026 30.0982Z" fill="white"/>
</g>
<path d="M490.962 88.4455C483.804 88.4455 477.54 86.9542 472.172 83.9715C466.803 80.9888 462.627 76.7136 459.644 71.1461C456.728 65.5121 455.27 58.9171 455.27 51.3609C455.27 43.7386 456.728 37.1435 459.644 31.5758C462.627 25.9419 466.803 21.6668 472.172 18.7504C477.54 15.7677 483.804 14.2764 490.962 14.2764C497.193 14.2764 502.695 15.3037 507.466 17.3585C512.305 19.4132 516.216 22.3958 519.199 26.3065C522.181 30.2171 524.037 34.8899 524.766 40.325H512.637C511.974 37.011 510.648 34.1609 508.66 31.7747C506.738 29.3223 504.252 27.4664 501.203 26.2071C498.154 24.8814 494.741 24.2186 490.962 24.2186C486.124 24.2186 481.915 25.2791 478.336 27.4002C474.823 29.5211 472.105 32.6364 470.183 36.7458C468.261 40.789 467.3 45.6607 467.3 51.3609C467.3 57.0612 468.261 61.9329 470.183 65.9761C472.105 70.0192 474.823 73.1013 478.336 75.2224C481.915 77.3433 486.124 78.4038 490.962 78.4038C494.741 78.4038 498.154 77.7742 501.203 76.5148C504.252 75.1892 506.738 73.3002 508.66 70.8477C510.648 68.3953 511.974 65.4789 512.637 62.0986H524.766C524.103 67.5999 522.281 72.3059 519.298 76.2166C516.381 80.1272 512.504 83.143 507.665 85.2641C502.827 87.385 497.259 88.4455 490.962 88.4455ZM554.519 88.4455C549.416 88.4455 544.875 87.3518 540.898 85.1646C536.987 82.911 533.939 79.7626 531.752 75.7194C529.631 71.61 528.57 66.8046 528.57 61.3032C528.57 55.8681 529.597 51.0958 531.652 46.9864C533.773 42.8769 536.789 39.6954 540.699 37.4418C544.676 35.1219 549.283 33.9621 554.519 33.9621C559.69 33.9621 564.23 35.0888 568.14 37.3424C572.051 39.5296 575.066 42.6781 577.187 46.7875C579.375 50.897 580.468 55.7024 580.468 61.2037C580.468 66.6389 579.407 71.4111 577.286 75.5206C575.232 79.6301 572.25 82.8116 568.339 85.0652C564.428 87.3188 559.822 88.4455 554.519 88.4455ZM554.519 79.2987C557.502 79.2987 560.086 78.6027 562.274 77.2108C564.527 75.8189 566.251 73.7642 567.444 71.0466C568.703 68.329 569.333 65.0481 569.333 61.2037C569.333 57.4257 568.737 54.178 567.543 51.4604C566.351 48.6766 564.627 46.5887 562.374 45.1968C560.186 43.7386 557.568 43.0094 554.519 43.0094C551.537 43.0094 548.918 43.7386 546.664 45.1968C544.478 46.5887 542.754 48.6434 541.495 51.3609C540.302 54.0785 539.705 57.3926 539.705 61.3032C539.705 65.0812 540.302 68.329 541.495 71.0466C542.687 73.7642 544.378 75.8189 546.565 77.2108C548.819 78.6027 551.471 79.2987 554.519 79.2987ZM587.274 34.8568H597.714L598.211 45.495H598.41C599.801 41.9821 602.055 39.1983 605.171 37.1435C608.285 35.0225 611.931 33.9621 616.106 33.9621C620.547 33.9621 624.392 35.0556 627.64 37.243C630.887 39.3639 633.373 42.4792 635.097 46.5887C636.82 50.6982 637.681 55.5698 637.681 61.2037C637.681 66.9703 636.82 71.8751 635.097 75.9183C633.373 79.9615 630.887 83.0767 627.64 85.2641C624.392 87.385 620.547 88.4455 616.106 88.4455C611.931 88.4455 608.285 87.4845 605.171 85.5623C602.055 83.5738 599.835 80.8894 598.508 77.5091H598.311V104.254H587.274V34.8568ZM612.13 79.4975C615.046 79.4975 617.598 78.8015 619.785 77.4096C621.973 75.9514 623.63 73.8635 624.757 71.1461C625.95 68.3622 626.546 65.0482 626.546 61.2037C626.546 55.5035 625.286 51.0627 622.769 47.8812C620.25 44.6333 616.77 43.0094 612.328 43.0094C609.479 43.0094 606.993 43.7054 604.872 45.0973C602.751 46.4892 601.127 48.3783 600 50.7644C598.874 53.1506 598.311 55.7687 598.311 58.6188V63.8882C598.311 66.8046 598.84 69.4558 599.901 71.8419C601.027 74.1618 602.652 76.0177 604.773 77.4096C606.894 78.8015 609.346 79.4975 612.13 79.4975ZM644.85 34.8568H655.786V87.5507H644.85V34.8568ZM650.318 27.7978C648.33 27.7978 646.673 27.1682 645.347 25.9088C644.021 24.6494 643.359 23.0918 643.359 21.2359C643.359 19.3801 644.021 17.8225 645.347 16.5631C646.673 15.3037 648.33 14.6741 650.318 14.6741C652.306 14.6741 653.963 15.3037 655.29 16.5631C656.615 17.8225 657.278 19.3801 657.278 21.2359C657.278 23.0918 656.615 24.6494 655.29 25.9088C653.963 27.1682 652.306 27.7978 650.318 27.7978ZM665.239 14.8729H676.275V87.5507H665.239V14.8729ZM709.09 88.4455C703.986 88.4455 699.446 87.3518 695.47 85.1646C691.559 82.911 688.51 79.7627 686.322 75.7194C684.201 71.61 683.141 66.8046 683.141 61.3032C683.141 55.8681 684.168 51.0958 686.223 46.9864C688.344 42.8769 691.36 39.6954 695.271 37.4418C699.247 35.1219 703.854 33.9621 709.09 33.9621C714.26 33.9621 718.8 35.0888 722.711 37.3424C726.621 39.5296 729.637 42.6781 731.758 46.7875C733.945 50.897 735.039 55.7024 735.039 61.2037C735.039 66.6389 733.979 71.4111 731.858 75.5206C729.803 79.6301 726.82 82.8116 722.91 85.0652C718.999 87.3188 714.393 88.4455 709.09 88.4455ZM709.09 79.2987C712.073 79.2987 714.658 78.6027 716.845 77.2108C719.099 75.8189 720.822 73.7642 722.015 71.0466C723.275 68.329 723.904 65.0482 723.904 61.2037C723.904 57.4257 723.307 54.178 722.115 51.4604C720.921 48.6766 719.198 46.5887 716.944 45.1968C714.757 43.7386 712.139 43.0094 709.09 43.0094C706.107 43.0094 703.49 43.7386 701.236 45.1968C699.048 46.5887 697.325 48.6434 696.065 51.3609C694.873 54.0785 694.276 57.3926 694.276 61.3032C694.276 65.0812 694.873 68.329 696.065 71.0466C697.259 73.7642 698.948 75.8189 701.136 77.2108C703.39 78.6027 706.041 79.2987 709.09 79.2987ZM759.54 87.5507C755.431 87.5507 752.381 86.5896 750.393 84.6675C748.404 82.679 747.411 79.5637 747.411 75.3217V43.8048H737.567V34.8568H747.411V20.1423L758.346 18.5515V34.8568H769.78V43.8048H758.346V73.3333C758.346 75.1892 758.778 76.5148 759.639 77.3103C760.501 78.0393 761.76 78.4038 763.417 78.4038H769.88V87.5507H759.54Z" fill="white"/>
</g>
</svg>
