<svg width="1128" height="492" viewBox="0 0 1128 492" fill="none" xmlns="http://www.w3.org/2000/svg">
<g clip-path="url(#clip0_86_1795)">
<rect width="1128" height="492" fill="#040809"/>
<g filter="url(#filter0_f_86_1795)">
<path d="M558 -55.02H492C400.873 -55.02 327 -30.3904 327 -0.00812139V21.9965C327 52.3787 400.873 77.0084 492 77.0084H558C649.127 77.0084 723 52.3787 723 21.9965V-0.00812139C723 -30.3904 649.127 -55.02 558 -55.02Z" fill="#17BBCD"/>
</g>
<g filter="url(#filter1_f_86_1795)">
<path d="M751.87 -111.391H669.908C556.741 -111.391 465 -75.1959 465 -30.5464V1.79175C465 46.4414 556.741 82.6368 669.908 82.6368H751.87C865.038 82.6368 956.785 46.4414 956.785 1.79175V-30.5464C956.785 -75.1959 865.038 -111.391 751.87 -111.391Z" fill="#FF0F39"/>
</g>
<g filter="url(#filter2_f_86_1795)">
<path d="M323.581 -73.9341H253.415C156.534 -73.9341 78 -42.8702 78 -4.55036V23.2029C78 61.5217 156.534 92.5849 253.415 92.5849H323.581C420.459 92.5849 499 61.5217 499 23.2029V-4.55036C499 -42.8702 420.459 -73.9341 323.581 -73.9341Z" fill="#0027DE"/>
</g>
<mask id="mask0_86_1795" style="mask-type:luminance" maskUnits="userSpaceOnUse" x="529" y="151" width="71" height="71">
<path d="M599.3 186.147C599.3 166.736 583.563 151 564.15 151C544.737 151 529 166.736 529 186.147C529 205.559 544.737 221.295 564.15 221.295C583.563 221.295 599.3 205.559 599.3 186.147Z" fill="white"/>
</mask>
<g mask="url(#mask0_86_1795)">
<path d="M599.3 186.147C599.3 166.736 583.563 151 564.15 151C544.737 151 529 166.736 529 186.147C529 205.559 544.737 221.295 564.15 221.295C583.563 221.295 599.3 205.559 599.3 186.147Z" fill="#EE1145"/>
<g filter="url(#filter3_f_86_1795)">
<path d="M559.426 133.993H548.465C533.331 133.993 521.063 146.261 521.063 161.393V172.353C521.063 187.485 533.331 199.753 548.465 199.753H559.426C574.559 199.753 586.828 187.485 586.828 172.353V161.393C586.828 146.261 574.559 133.993 559.426 133.993Z" fill="#17BBCD"/>
</g>
<g filter="url(#filter4_f_86_1795)">
<path d="M599.205 128.324H589.189C575.36 128.324 564.15 139.534 564.15 153.362V163.377C564.15 177.205 575.36 188.415 589.189 188.415H599.205C613.034 188.415 624.245 177.205 624.245 163.377V153.362C624.245 139.534 613.034 128.324 599.205 128.324Z" fill="#FF0F39"/>
</g>
<g filter="url(#filter5_f_86_1795)">
<path d="M589.164 182.746H576.51C559.038 182.746 544.875 196.909 544.875 214.379V227.032C544.875 244.502 559.038 258.664 576.51 258.664H589.164C606.635 258.664 620.799 244.502 620.799 227.032V214.379C620.799 196.909 606.635 182.746 589.164 182.746Z" fill="#0027DE"/>
</g>
</g>
<path d="M543.74 180.445V195.524C543.74 199.677 547.849 203.047 552.922 203.047V180.894C552.922 180.582 553.228 180.331 553.608 180.331H557.869C558.25 180.331 558.556 180.582 558.556 180.894V203.047H567.552V180.445C567.552 176.022 563.174 172.435 557.777 172.435H553.515C548.118 172.435 543.74 176.022 543.74 180.445Z" fill="#F9F9F9"/>
<path d="M569.933 194.264V201.841C569.933 202.566 570.719 203.154 571.689 203.154H578.382C579.352 203.154 580.138 202.566 580.138 201.841V194.264C580.138 193.538 579.352 192.95 578.382 192.95H571.689C570.719 192.95 569.933 193.538 569.933 194.264Z" fill="#F9F9F9"/>
<path opacity="0.38" d="M569.819 186.137V195.015C569.819 195.694 570.605 196.245 571.575 196.245H578.268C579.238 196.245 580.024 195.694 580.024 195.015V186.137C580.024 185.457 579.238 184.907 578.268 184.907H571.575C570.605 184.907 569.819 185.457 569.819 186.137Z" fill="#F9F9F9"/>
<path d="M576.966 180.387L576.652 181.109C576.603 181.226 576.52 181.327 576.414 181.397C576.308 181.468 576.184 181.505 576.056 181.505C575.929 181.505 575.804 181.468 575.698 181.397C575.592 181.327 575.51 181.226 575.46 181.109L575.147 180.387C574.595 179.111 573.585 178.088 572.315 177.52L571.347 177.088C571.229 177.034 571.13 176.947 571.06 176.838C570.99 176.73 570.953 176.603 570.953 176.474C570.953 176.345 570.99 176.218 571.06 176.11C571.13 176.001 571.229 175.914 571.347 175.86L572.261 175.454C573.563 174.869 574.591 173.808 575.133 172.489L575.455 171.711C575.503 171.59 575.586 171.486 575.693 171.413C575.8 171.34 575.927 171.301 576.056 171.301C576.186 171.301 576.313 171.34 576.42 171.413C576.527 171.486 576.61 171.59 576.657 171.711L576.98 172.488C577.521 173.807 578.549 174.869 579.85 175.454L580.766 175.862C580.883 175.916 580.982 176.002 581.052 176.111C581.121 176.22 581.158 176.346 581.158 176.475C581.158 176.604 581.121 176.73 581.052 176.838C580.982 176.947 580.883 177.034 580.766 177.088L579.796 177.518C578.527 178.087 577.517 179.111 576.966 180.387Z" fill="#F0C11E"/>
<path d="M582.696 169.778L582.557 170.098C582.535 170.15 582.498 170.195 582.451 170.226C582.404 170.258 582.349 170.274 582.292 170.274C582.235 170.274 582.18 170.258 582.133 170.226C582.086 170.195 582.049 170.15 582.027 170.098L581.888 169.778C581.643 169.21 581.193 168.756 580.629 168.503L580.199 168.311C580.147 168.287 580.102 168.249 580.071 168.2C580.04 168.152 580.024 168.096 580.024 168.038C580.024 167.981 580.04 167.925 580.071 167.876C580.102 167.828 580.147 167.789 580.199 167.765L580.605 167.585C581.184 167.325 581.641 166.853 581.881 166.267L582.025 165.921C582.046 165.868 582.083 165.822 582.13 165.789C582.178 165.757 582.234 165.739 582.292 165.739C582.35 165.739 582.406 165.757 582.454 165.789C582.501 165.822 582.538 165.868 582.559 165.921L582.702 166.267C582.943 166.853 583.4 167.325 583.978 167.585L584.385 167.766C584.437 167.79 584.481 167.828 584.512 167.877C584.543 167.925 584.559 167.981 584.559 168.038C584.559 168.096 584.543 168.152 584.512 168.2C584.481 168.248 584.437 168.287 584.385 168.311L583.954 168.502C583.39 168.755 582.941 169.21 582.696 169.778Z" fill="#F0C11E"/>
<path d="M567.288 172.169L567.183 172.41C567.167 172.449 567.139 172.482 567.104 172.506C567.069 172.53 567.027 172.542 566.985 172.542C566.942 172.542 566.901 172.53 566.865 172.506C566.83 172.482 566.802 172.449 566.786 172.41L566.681 172.169C566.498 171.744 566.161 171.403 565.737 171.213L565.415 171.069C565.376 171.051 565.342 171.023 565.319 170.986C565.296 170.95 565.284 170.908 565.284 170.865C565.284 170.822 565.296 170.78 565.319 170.743C565.342 170.707 565.376 170.678 565.415 170.66L565.72 170.525C566.154 170.33 566.496 169.976 566.677 169.537L566.784 169.277C566.8 169.237 566.828 169.202 566.864 169.178C566.899 169.154 566.941 169.141 566.985 169.141C567.028 169.141 567.07 169.154 567.106 169.178C567.142 169.202 567.169 169.237 567.185 169.277L567.292 169.536C567.473 169.976 567.815 170.33 568.249 170.525L568.554 170.661C568.593 170.679 568.627 170.708 568.65 170.744C568.673 170.78 568.685 170.822 568.685 170.865C568.685 170.908 568.673 170.95 568.65 170.986C568.627 171.022 568.593 171.051 568.554 171.069L568.231 171.213C567.808 171.403 567.471 171.744 567.288 172.169Z" fill="#F0C11E"/>
<path d="M2063 170H-935V492H2063V170Z" fill="url(#paint0_linear_86_1795)"/>
<g filter="url(#filter6_f_86_1795)">
<path d="M550.364 252.83C302.125 372.914 -327.736 238.487 -611.637 156.262L-648 177.777V495H1756V219.307C1709.67 230.481 1540.08 227.512 1232.37 126.241C924.66 24.9702 626.322 125.074 515.617 187.784C619.049 184.582 581.878 229.814 550.364 252.83Z" fill="black"/>
</g>
</g>
<defs>
<filter id="filter0_f_86_1795" x="42.739" y="-339.281" width="964.522" height="700.55" filterUnits="userSpaceOnUse" color-interpolation-filters="sRGB">
<feFlood flood-opacity="0" result="BackgroundImageFix"/>
<feBlend mode="normal" in="SourceGraphic" in2="BackgroundImageFix" result="shape"/>
<feGaussianBlur stdDeviation="142.13" result="effect1_foregroundBlur_86_1795"/>
</filter>
<filter id="filter1_f_86_1795" x="-58.9837" y="-635.375" width="1539.75" height="1242" filterUnits="userSpaceOnUse" color-interpolation-filters="sRGB">
<feFlood flood-opacity="0" result="BackgroundImageFix"/>
<feBlend mode="normal" in="SourceGraphic" in2="BackgroundImageFix" result="shape"/>
<feGaussianBlur stdDeviation="261.992" result="effect1_foregroundBlur_86_1795"/>
</filter>
<filter id="filter2_f_86_1795" x="-468.252" y="-620.186" width="1513.5" height="1259.02" filterUnits="userSpaceOnUse" color-interpolation-filters="sRGB">
<feFlood flood-opacity="0" result="BackgroundImageFix"/>
<feBlend mode="normal" in="SourceGraphic" in2="BackgroundImageFix" result="shape"/>
<feGaussianBlur stdDeviation="273.126" result="effect1_foregroundBlur_86_1795"/>
</filter>
<filter id="filter3_f_86_1795" x="496.46" y="109.39" width="114.971" height="114.966" filterUnits="userSpaceOnUse" color-interpolation-filters="sRGB">
<feFlood flood-opacity="0" result="BackgroundImageFix"/>
<feBlend mode="normal" in="SourceGraphic" in2="BackgroundImageFix" result="shape"/>
<feGaussianBlur stdDeviation="12.3016" result="effect1_foregroundBlur_86_1795"/>
</filter>
<filter id="filter4_f_86_1795" x="518.798" y="82.9727" width="150.798" height="150.794" filterUnits="userSpaceOnUse" color-interpolation-filters="sRGB">
<feFlood flood-opacity="0" result="BackgroundImageFix"/>
<feBlend mode="normal" in="SourceGraphic" in2="BackgroundImageFix" result="shape"/>
<feGaussianBlur stdDeviation="22.6757" result="effect1_foregroundBlur_86_1795"/>
</filter>
<filter id="filter5_f_86_1795" x="497.596" y="135.467" width="170.482" height="170.476" filterUnits="userSpaceOnUse" color-interpolation-filters="sRGB">
<feFlood flood-opacity="0" result="BackgroundImageFix"/>
<feBlend mode="normal" in="SourceGraphic" in2="BackgroundImageFix" result="shape"/>
<feGaussianBlur stdDeviation="23.6395" result="effect1_foregroundBlur_86_1795"/>
</filter>
<filter id="filter6_f_86_1795" x="-702" y="29" width="2512" height="520" filterUnits="userSpaceOnUse" color-interpolation-filters="sRGB">
<feFlood flood-opacity="0" result="BackgroundImageFix"/>
<feBlend mode="normal" in="SourceGraphic" in2="BackgroundImageFix" result="shape"/>
<feGaussianBlur stdDeviation="27" result="effect1_foregroundBlur_86_1795"/>
</filter>
<linearGradient id="paint0_linear_86_1795" x1="564" y1="170" x2="564" y2="492" gradientUnits="userSpaceOnUse">
<stop stop-color="#040809" stop-opacity="0"/>
<stop offset="0.528846" stop-color="#040809"/>
</linearGradient>
<clipPath id="clip0_86_1795">
<rect width="1128" height="492" fill="white"/>
</clipPath>
</defs>
</svg>
