<svg width="1128" height="492" viewBox="0 0 1128 492" fill="none" xmlns="http://www.w3.org/2000/svg">
<g clip-path="url(#clip0_103_1940)">
<mask id="mask0_103_1940" style="mask-type:alpha" maskUnits="userSpaceOnUse" x="-638" y="-120" width="2404" height="366">
<path d="M560.364 197.83C312.125 317.914 -317.736 183.487 -601.637 101.262L-638 122.777V-120H1766V164.307C1719.67 175.481 1550.08 172.512 1242.37 71.2412C934.66 -30.0298 636.322 70.0738 525.617 132.784C629.049 129.582 591.878 174.814 560.364 197.83Z" fill="#040809"/>
</mask>
<g mask="url(#mask0_103_1940)">
<g clip-path="url(#clip1_103_1940)">
<g filter="url(#filter0_f_103_1940)">
<path d="M548.982 45.9707H513.892C465.444 45.9707 426.168 59.0653 426.168 75.2183V86.9173C426.168 103.07 465.444 116.165 513.892 116.165H548.982C597.43 116.165 636.706 103.07 636.706 86.9173V75.2183C636.706 59.0653 597.43 45.9707 548.982 45.9707Z" fill="#17BBCD"/>
</g>
<g filter="url(#filter1_f_103_1940)">
<path d="M652.055 16H608.479C548.312 16 499.537 35.2437 499.537 58.982V76.1749C499.537 99.9134 548.312 119.157 608.479 119.157H652.055C712.222 119.157 761 99.9134 761 76.1749V58.982C761 35.2437 712.222 16 652.055 16Z" fill="#FF0F39"/>
</g>
<g filter="url(#filter2_f_103_1940)">
<path d="M424.351 35.9146H387.046C335.538 35.9146 293.785 52.43 293.785 72.8031V87.5584C293.785 107.931 335.538 124.446 387.046 124.446H424.351C475.857 124.446 517.614 107.931 517.614 87.5584V72.8031C517.614 52.43 475.857 35.9146 424.351 35.9146Z" fill="#0027DE"/>
</g>
<mask id="mask1_103_1940" style="mask-type:luminance" maskUnits="userSpaceOnUse" x="539" y="177" width="71" height="71">
<path d="M609.3 212.147C609.3 192.736 593.563 177 574.15 177C554.737 177 539 192.736 539 212.147C539 231.559 554.737 247.295 574.15 247.295C593.563 247.295 609.3 231.559 609.3 212.147Z" fill="white"/>
</mask>
<g mask="url(#mask1_103_1940)">
<path d="M609.3 212.147C609.3 192.736 593.563 177 574.15 177C554.737 177 539 192.736 539 212.147C539 231.559 554.737 247.295 574.15 247.295C593.563 247.295 609.3 231.559 609.3 212.147Z" fill="#FF0F39"/>
<g filter="url(#filter3_f_103_1940)">
<path d="M569.426 159.993H558.465C543.331 159.993 531.063 172.261 531.063 187.393V198.353C531.063 213.485 543.331 225.753 558.465 225.753H569.426C584.559 225.753 596.828 213.485 596.828 198.353V187.393C596.828 172.261 584.559 159.993 569.426 159.993Z" fill="#17BBCD"/>
</g>
<g filter="url(#filter4_f_103_1940)">
<path d="M609.205 154.324H599.19C585.361 154.324 574.15 165.534 574.15 179.362V189.377C574.15 203.205 585.361 214.415 599.19 214.415H609.205C623.034 214.415 634.245 203.205 634.245 189.377V179.362C634.245 165.534 623.034 154.324 609.205 154.324Z" fill="#FF0F39"/>
</g>
<g filter="url(#filter5_f_103_1940)">
<path d="M599.163 208.746H586.509C569.038 208.746 554.874 222.909 554.874 240.379V253.032C554.874 270.502 569.038 284.664 586.509 284.664H599.163C616.635 284.664 630.799 270.502 630.799 253.032V240.379C630.799 222.909 616.635 208.746 599.163 208.746Z" fill="#0027DE"/>
</g>
</g>
<path d="M553.74 206.445V221.524C553.74 225.677 557.849 229.047 562.922 229.047V206.894C562.922 206.582 563.228 206.331 563.608 206.331H567.87C568.25 206.331 568.556 206.582 568.556 206.894V229.047H577.552V206.445C577.552 202.022 573.174 198.435 567.777 198.435H563.515C558.118 198.435 553.74 202.022 553.74 206.445Z" fill="white"/>
<path d="M579.933 220.264V227.841C579.933 228.566 580.719 229.154 581.69 229.154H588.382C589.352 229.154 590.138 228.566 590.138 227.841V220.264C590.138 219.538 589.352 218.95 588.382 218.95H581.69C580.719 218.95 579.933 219.538 579.933 220.264Z" fill="white"/>
<path opacity="0.38" d="M579.819 212.137V221.015C579.819 221.694 580.605 222.245 581.575 222.245H588.268C589.238 222.245 590.024 221.694 590.024 221.015V212.137C590.024 211.457 589.238 210.907 588.268 210.907H581.575C580.605 210.907 579.819 211.457 579.819 212.137Z" fill="white"/>
<path d="M586.966 206.387L586.652 207.109C586.603 207.226 586.52 207.327 586.414 207.397C586.308 207.468 586.184 207.505 586.056 207.505C585.929 207.505 585.805 207.468 585.698 207.397C585.592 207.327 585.51 207.226 585.461 207.109L585.147 206.387C584.595 205.111 583.585 204.088 582.315 203.52L581.347 203.088C581.229 203.034 581.13 202.947 581.06 202.838C580.99 202.73 580.953 202.603 580.953 202.474C580.953 202.345 580.99 202.218 581.06 202.11C581.13 202.001 581.229 201.914 581.347 201.86L582.262 201.454C583.563 200.869 584.591 199.808 585.133 198.489L585.456 197.711C585.503 197.59 585.586 197.486 585.693 197.413C585.8 197.34 585.927 197.301 586.056 197.301C586.186 197.301 586.313 197.34 586.42 197.413C586.527 197.486 586.61 197.59 586.657 197.711L586.98 198.488C587.521 199.807 588.549 200.869 589.85 201.454L590.766 201.862C590.883 201.916 590.982 202.002 591.052 202.111C591.121 202.22 591.158 202.346 591.158 202.475C591.158 202.604 591.121 202.73 591.052 202.838C590.982 202.947 590.883 203.034 590.766 203.088L589.797 203.518C588.527 204.087 587.517 205.111 586.966 206.387Z" fill="#F0C11E"/>
<path d="M592.696 195.778L592.557 196.098C592.535 196.15 592.498 196.195 592.451 196.226C592.404 196.258 592.349 196.274 592.292 196.274C592.236 196.274 592.18 196.258 592.133 196.226C592.086 196.195 592.049 196.15 592.028 196.098L591.888 195.778C591.643 195.21 591.194 194.756 590.629 194.503L590.199 194.311C590.147 194.287 590.103 194.249 590.072 194.2C590.041 194.152 590.024 194.096 590.024 194.038C590.024 193.981 590.041 193.925 590.072 193.876C590.103 193.828 590.147 193.789 590.199 193.765L590.606 193.585C591.184 193.325 591.641 192.853 591.882 192.267L592.025 191.921C592.046 191.868 592.083 191.822 592.131 191.789C592.178 191.757 592.235 191.739 592.292 191.739C592.35 191.739 592.406 191.757 592.454 191.789C592.502 191.822 592.538 191.868 592.559 191.921L592.703 192.267C592.943 192.853 593.4 193.325 593.978 193.585L594.385 193.766C594.437 193.79 594.481 193.828 594.512 193.877C594.543 193.925 594.56 193.981 594.56 194.038C594.56 194.096 594.543 194.152 594.512 194.2C594.481 194.248 594.437 194.287 594.385 194.311L593.955 194.502C593.39 194.755 592.941 195.21 592.696 195.778Z" fill="#F0C11E"/>
<path d="M577.288 198.169L577.183 198.41C577.167 198.449 577.14 198.482 577.104 198.506C577.069 198.53 577.027 198.542 576.985 198.542C576.942 198.542 576.901 198.53 576.866 198.506C576.83 198.482 576.803 198.449 576.786 198.41L576.682 198.169C576.498 197.744 576.161 197.403 575.738 197.213L575.415 197.069C575.376 197.051 575.343 197.023 575.319 196.986C575.296 196.95 575.284 196.908 575.284 196.865C575.284 196.822 575.296 196.78 575.319 196.743C575.343 196.707 575.376 196.678 575.415 196.66L575.72 196.525C576.154 196.33 576.496 195.976 576.677 195.537L576.785 195.277C576.8 195.237 576.828 195.202 576.864 195.178C576.899 195.154 576.942 195.141 576.985 195.141C577.028 195.141 577.07 195.154 577.106 195.178C577.142 195.202 577.169 195.237 577.185 195.277L577.293 195.536C577.473 195.976 577.816 196.33 578.249 196.525L578.555 196.661C578.594 196.679 578.627 196.708 578.65 196.744C578.673 196.78 578.686 196.822 578.686 196.865C578.686 196.908 578.673 196.95 578.65 196.986C578.627 197.022 578.594 197.051 578.555 197.069L578.232 197.213C577.808 197.403 577.472 197.744 577.288 198.169Z" fill="#F0C11E"/>
</g>
</g>
</g>
<defs>
<filter id="filter0_f_103_1940" x="141.907" y="-238.29" width="779.059" height="638.716" filterUnits="userSpaceOnUse" color-interpolation-filters="sRGB">
<feFlood flood-opacity="0" result="BackgroundImageFix"/>
<feBlend mode="normal" in="SourceGraphic" in2="BackgroundImageFix" result="shape"/>
<feGaussianBlur stdDeviation="142.13" result="effect1_foregroundBlur_103_1940"/>
</filter>
<filter id="filter1_f_103_1940" x="-24.4462" y="-507.984" width="1309.43" height="1151.12" filterUnits="userSpaceOnUse" color-interpolation-filters="sRGB">
<feFlood flood-opacity="0" result="BackgroundImageFix"/>
<feBlend mode="normal" in="SourceGraphic" in2="BackgroundImageFix" result="shape"/>
<feGaussianBlur stdDeviation="261.992" result="effect1_foregroundBlur_103_1940"/>
</filter>
<filter id="filter2_f_103_1940" x="-252.467" y="-510.338" width="1316.33" height="1181.04" filterUnits="userSpaceOnUse" color-interpolation-filters="sRGB">
<feFlood flood-opacity="0" result="BackgroundImageFix"/>
<feBlend mode="normal" in="SourceGraphic" in2="BackgroundImageFix" result="shape"/>
<feGaussianBlur stdDeviation="273.126" result="effect1_foregroundBlur_103_1940"/>
</filter>
<filter id="filter3_f_103_1940" x="506.46" y="135.39" width="114.971" height="114.966" filterUnits="userSpaceOnUse" color-interpolation-filters="sRGB">
<feFlood flood-opacity="0" result="BackgroundImageFix"/>
<feBlend mode="normal" in="SourceGraphic" in2="BackgroundImageFix" result="shape"/>
<feGaussianBlur stdDeviation="12.3016" result="effect1_foregroundBlur_103_1940"/>
</filter>
<filter id="filter4_f_103_1940" x="528.799" y="108.973" width="150.798" height="150.794" filterUnits="userSpaceOnUse" color-interpolation-filters="sRGB">
<feFlood flood-opacity="0" result="BackgroundImageFix"/>
<feBlend mode="normal" in="SourceGraphic" in2="BackgroundImageFix" result="shape"/>
<feGaussianBlur stdDeviation="22.6757" result="effect1_foregroundBlur_103_1940"/>
</filter>
<filter id="filter5_f_103_1940" x="507.595" y="161.467" width="170.482" height="170.476" filterUnits="userSpaceOnUse" color-interpolation-filters="sRGB">
<feFlood flood-opacity="0" result="BackgroundImageFix"/>
<feBlend mode="normal" in="SourceGraphic" in2="BackgroundImageFix" result="shape"/>
<feGaussianBlur stdDeviation="23.6395" result="effect1_foregroundBlur_103_1940"/>
</filter>
<clipPath id="clip0_103_1940">
<rect width="1128" height="492" fill="white"/>
</clipPath>
<clipPath id="clip1_103_1940">
<rect width="1128" height="492" fill="white" transform="translate(10 -4)"/>
</clipPath>
</defs>
</svg>
