<svg width="2178" height="1005" viewBox="0 0 2178 1005" fill="none" xmlns="http://www.w3.org/2000/svg">
<g clip-path="url(#clip0_5_94)">
<g filter="url(#filter0_f_5_94)">
<path d="M2220 296.5C2220 63.712 2002.19 -125 1733.5 -125C1464.81 -125 1247 63.712 1247 296.5C1247 529.288 1464.81 718 1733.5 718C2002.19 718 2220 529.288 2220 296.5Z" fill="#EE1145"/>
</g>
<g filter="url(#filter1_f_5_94)">
<path d="M1422.83 -289H1315.17C1166.51 -289 1046 -168.49 1046 -19.8333V87.8333C1046 236.49 1166.51 357 1315.17 357H1422.83C1571.49 357 1692 236.49 1692 87.8333V-19.8333C1692 -168.49 1571.49 -289 1422.83 -289Z" fill="#17BBCD"/>
</g>
<g filter="url(#filter2_f_5_94)">
<path d="M2319.38 -425.097H2148.42C1912.36 -425.097 1721 -233.735 1721 2.3227V173.29C1721 409.349 1912.36 600.71 2148.42 600.71H2319.38C2555.44 600.71 2746.81 409.349 2746.81 173.29V2.3227C2746.81 -233.735 2555.44 -425.097 2319.38 -425.097Z" fill="#FF0F39"/>
</g>
<g filter="url(#filter3_f_5_94)">
<path d="M2147.97 503.936H1931.97C1633.73 503.936 1391.97 745.702 1391.97 1043.94V1259.94C1391.97 1558.17 1633.73 1799.93 1931.97 1799.93H2147.97C2446.2 1799.93 2687.98 1558.17 2687.98 1259.94V1043.94C2687.98 745.702 2446.2 503.936 2147.97 503.936Z" fill="#0027DE"/>
</g>
<rect y="405" width="2178" height="600" fill="url(#paint0_linear_5_94)"/>
<g filter="url(#filter4_f_5_94)">
<path d="M2249.42 163H2189.58C2106.97 163 2040 260.006 2040 379.668V466.335C2040 585.998 2106.97 683 2189.58 683H2249.42C2332.03 683 2399 585.998 2399 466.335V379.668C2399 260.006 2332.03 163 2249.42 163Z" fill="#0027DE"/>
</g>
</g>
<defs>
<filter id="filter0_f_5_94" x="1033" y="-339" width="1401" height="1271" filterUnits="userSpaceOnUse" color-interpolation-filters="sRGB">
<feFlood flood-opacity="0" result="BackgroundImageFix"/>
<feBlend mode="normal" in="SourceGraphic" in2="BackgroundImageFix" result="shape"/>
<feGaussianBlur stdDeviation="107" result="effect1_foregroundBlur_5_94"/>
</filter>
<filter id="filter1_f_5_94" x="626" y="-709" width="1486" height="1486" filterUnits="userSpaceOnUse" color-interpolation-filters="sRGB">
<feFlood flood-opacity="0" result="BackgroundImageFix"/>
<feBlend mode="normal" in="SourceGraphic" in2="BackgroundImageFix" result="shape"/>
<feGaussianBlur stdDeviation="210" result="effect1_foregroundBlur_5_94"/>
</filter>
<filter id="filter2_f_5_94" x="946.807" y="-1199.29" width="2574.19" height="2574.19" filterUnits="userSpaceOnUse" color-interpolation-filters="sRGB">
<feFlood flood-opacity="0" result="BackgroundImageFix"/>
<feBlend mode="normal" in="SourceGraphic" in2="BackgroundImageFix" result="shape"/>
<feGaussianBlur stdDeviation="387.097" result="effect1_foregroundBlur_5_94"/>
</filter>
<filter id="filter3_f_5_94" x="584.871" y="-303.161" width="2910.2" height="2910.18" filterUnits="userSpaceOnUse" color-interpolation-filters="sRGB">
<feFlood flood-opacity="0" result="BackgroundImageFix"/>
<feBlend mode="normal" in="SourceGraphic" in2="BackgroundImageFix" result="shape"/>
<feGaussianBlur stdDeviation="403.548" result="effect1_foregroundBlur_5_94"/>
</filter>
<filter id="filter4_f_5_94" x="1626" y="-251" width="1187" height="1348" filterUnits="userSpaceOnUse" color-interpolation-filters="sRGB">
<feFlood flood-opacity="0" result="BackgroundImageFix"/>
<feBlend mode="normal" in="SourceGraphic" in2="BackgroundImageFix" result="shape"/>
<feGaussianBlur stdDeviation="207" result="effect1_foregroundBlur_5_94"/>
</filter>
<linearGradient id="paint0_linear_5_94" x1="1089" y1="405" x2="1089" y2="1005" gradientUnits="userSpaceOnUse">
<stop stop-color="#040809" stop-opacity="0"/>
<stop offset="0.817308" stop-color="#040809"/>
</linearGradient>
<clipPath id="clip0_5_94">
<rect width="2178" height="1005" fill="white"/>
</clipPath>
</defs>
</svg>
