<svg width="2178" height="718" viewBox="0 0 2178 718" fill="none" xmlns="http://www.w3.org/2000/svg">
<g clip-path="url(#clip0_63_3272)">
<g filter="url(#filter0_f_63_3272)">
<path d="M2116 488C2116 238.92 1909.83 37 1655.5 37C1401.17 37 1195 238.92 1195 488C1195 737.08 1401.17 939 1655.5 939C1909.83 939 2116 737.08 2116 488Z" fill="#EE1145" fill-opacity="0.7"/>
</g>
<g filter="url(#filter1_f_63_3272)">
<path d="M1362.08 -278H1258.92C1116.47 -278 1001 -192.561 1001 -87.1667V-10.8334C1001 94.5608 1116.47 180 1258.92 180H1362.08C1504.53 180 1620 94.5608 1620 -10.8334V-87.1667C1620 -192.561 1504.53 -278 1362.08 -278Z" fill="#17BBCD"/>
<path d="M623.5 404H592.5C549.698 404 515 462.576 515 534.833V587.167C515 659.424 549.698 718 592.5 718H623.5C666.302 718 701 659.424 701 587.167V534.833C701 462.576 666.302 404 623.5 404Z" fill="#17BBCD"/>
</g>
<g filter="url(#filter2_f_63_3272)">
<path d="M2200.48 -303.871H2092.32C1942.97 -303.871 1821.9 -167.131 1821.9 1.54581V123.712C1821.9 292.39 1942.97 429.129 2092.32 429.129H2200.48C2349.83 429.129 2470.9 292.39 2470.9 123.712V1.54581C2470.9 -167.131 2349.83 -303.871 2200.48 -303.871Z" fill="#FF0F39"/>
</g>
<g filter="url(#filter3_f_63_3272)">
<path d="M2147.97 360.026H1931.97C1633.73 360.026 1391.97 532.751 1391.97 745.817V900.133C1391.97 1113.2 1633.73 1285.92 1931.97 1285.92H2147.97C2446.2 1285.92 2687.98 1113.2 2687.98 900.133V745.817C2687.98 532.751 2446.2 360.026 2147.97 360.026Z" fill="#0027DE"/>
</g>
<rect y="313" width="2178" height="405" fill="url(#paint0_linear_63_3272)"/>
<g filter="url(#filter4_f_63_3272)">
<path d="M2249.42 116.452H2189.58C2106.97 116.452 2040 185.755 2040 271.246V333.163C2040 418.653 2106.97 487.954 2189.58 487.954H2249.42C2332.03 487.954 2399 418.653 2399 333.163V271.246C2399 185.755 2332.03 116.452 2249.42 116.452Z" fill="#0027DE"/>
</g>
<g filter="url(#filter5_f_63_3272)">
<path d="M923.499 237H892.5C849.698 237 815 272.818 815 317.001V349.001C815 393.184 849.698 429 892.5 429H923.499C966.301 429 1001 393.184 1001 349.001V317.001C1001 272.818 966.301 237 923.499 237Z" fill="#0027DE"/>
</g>
</g>
<defs>
<filter id="filter0_f_63_3272" x="981" y="-177" width="1349" height="1330" filterUnits="userSpaceOnUse" color-interpolation-filters="sRGB">
<feFlood flood-opacity="0" result="BackgroundImageFix"/>
<feBlend mode="normal" in="SourceGraphic" in2="BackgroundImageFix" result="shape"/>
<feGaussianBlur stdDeviation="107" result="effect1_foregroundBlur_63_3272"/>
</filter>
<filter id="filter1_f_63_3272" x="95" y="-698" width="1945" height="1836" filterUnits="userSpaceOnUse" color-interpolation-filters="sRGB">
<feFlood flood-opacity="0" result="BackgroundImageFix"/>
<feBlend mode="normal" in="SourceGraphic" in2="BackgroundImageFix" result="shape"/>
<feGaussianBlur stdDeviation="210" result="effect1_foregroundBlur_63_3272"/>
</filter>
<filter id="filter2_f_63_3272" x="1047.71" y="-1078.06" width="2197.39" height="2281.39" filterUnits="userSpaceOnUse" color-interpolation-filters="sRGB">
<feFlood flood-opacity="0" result="BackgroundImageFix"/>
<feBlend mode="normal" in="SourceGraphic" in2="BackgroundImageFix" result="shape"/>
<feGaussianBlur stdDeviation="387.097" result="effect1_foregroundBlur_63_3272"/>
</filter>
<filter id="filter3_f_63_3272" x="584.871" y="-447.071" width="2910.2" height="2540.09" filterUnits="userSpaceOnUse" color-interpolation-filters="sRGB">
<feFlood flood-opacity="0" result="BackgroundImageFix"/>
<feBlend mode="normal" in="SourceGraphic" in2="BackgroundImageFix" result="shape"/>
<feGaussianBlur stdDeviation="403.548" result="effect1_foregroundBlur_63_3272"/>
</filter>
<filter id="filter4_f_63_3272" x="1626" y="-297.548" width="1187" height="1199.5" filterUnits="userSpaceOnUse" color-interpolation-filters="sRGB">
<feFlood flood-opacity="0" result="BackgroundImageFix"/>
<feBlend mode="normal" in="SourceGraphic" in2="BackgroundImageFix" result="shape"/>
<feGaussianBlur stdDeviation="207" result="effect1_foregroundBlur_63_3272"/>
</filter>
<filter id="filter5_f_63_3272" x="401" y="-177" width="1014" height="1020" filterUnits="userSpaceOnUse" color-interpolation-filters="sRGB">
<feFlood flood-opacity="0" result="BackgroundImageFix"/>
<feBlend mode="normal" in="SourceGraphic" in2="BackgroundImageFix" result="shape"/>
<feGaussianBlur stdDeviation="207" result="effect1_foregroundBlur_63_3272"/>
</filter>
<linearGradient id="paint0_linear_63_3272" x1="1089" y1="313" x2="1089" y2="718" gradientUnits="userSpaceOnUse">
<stop stop-color="#040809" stop-opacity="0"/>
<stop offset="0.817308" stop-color="#040809"/>
</linearGradient>
<clipPath id="clip0_63_3272">
<rect width="2178" height="718" fill="white"/>
</clipPath>
</defs>
</svg>
