<svg width="200" height="59" viewBox="0 0 200 59" fill="none" xmlns="http://www.w3.org/2000/svg">
<path fill-rule="evenodd" clip-rule="evenodd" d="M194.265 47.4943C191.741 47.4943 189.695 49.5402 189.695 52.064C189.695 54.5879 191.741 56.6337 194.265 56.6337C196.789 56.6337 198.835 54.5879 198.835 52.064C198.835 49.5402 196.789 47.4943 194.265 47.4943ZM188.531 52.064C188.531 48.8971 191.098 46.3301 194.265 46.3301C197.432 46.3301 199.999 48.8971 199.999 52.064C199.999 55.231 197.432 57.798 194.265 57.798C191.098 57.798 188.531 55.231 188.531 52.064Z" fill="black"/>
<path d="M193.95 51.5987C194.271 51.5987 194.503 51.5345 194.643 51.4124C194.783 51.2959 194.858 51.0978 194.858 50.8184C194.858 50.545 194.783 50.3528 194.643 50.2308C194.503 50.1143 194.271 50.056 193.95 50.056H193.298V51.5987H193.95ZM193.298 52.6638V54.934H191.75V48.9326H194.113C194.905 48.9326 195.481 49.0661 195.848 49.334C196.221 49.5959 196.401 50.0152 196.401 50.5913C196.401 50.9872 196.308 51.3134 196.116 51.5693C195.924 51.8198 195.639 52.012 195.249 52.1285C195.464 52.1808 195.65 52.2913 195.819 52.4601C195.988 52.6289 196.156 52.8849 196.325 53.2345L197.169 54.934H195.522L194.789 53.4441C194.643 53.1468 194.492 52.9377 194.34 52.8326C194.189 52.7221 193.985 52.6638 193.735 52.6638H193.298Z" fill="black"/>
<path d="M8.82986 25.3335C10.1947 24.5776 11.7279 24.1935 13.2812 24.218C14.6361 24.2007 15.9752 24.5167 17.1846 25.1392C18.3887 25.7819 19.4064 26.735 20.1358 27.9037L23.611 25.6243C22.6535 23.873 21.2026 22.4542 19.4458 21.5511C17.5471 20.589 15.4489 20.1066 13.3287 20.1448C10.9338 20.1017 8.56725 20.6772 6.44991 21.818C4.47734 22.8914 2.83727 24.5032 1.71359 26.4729C0.589606 28.5437 0 30.8713 0 33.2374C0 35.6036 0.589606 37.9312 1.71359 40.002C2.84049 41.9753 4.47918 43.5944 6.44991 44.6815C8.56239 45.8379 10.9309 46.4223 13.3287 46.3787C15.4517 46.4173 17.5518 45.926 19.4458 44.948C21.2011 44.0313 22.6505 42.6056 23.611 40.8506L20.1356 38.6192C19.4066 39.788 18.3889 40.7411 17.1846 41.3833C15.9754 42.0063 14.6364 42.3225 13.2816 42.3052C11.7283 42.3302 10.1951 41.9459 8.83046 41.1898C7.52073 40.4553 6.4461 39.3526 5.73473 38.0133C4.96651 36.5452 4.58165 34.9008 4.61711 33.2378C4.58498 31.5903 4.9694 29.962 5.73349 28.5097C6.44564 27.1706 7.52037 26.0681 8.82986 25.3335Z" fill="black"/>
<path d="M32.5624 10.1064H27.9922V46.088H32.5624V10.1064Z" fill="black"/>
<path d="M56.8608 21.8174C54.8961 20.6822 52.6686 20.1044 50.4103 20.1445C48.1374 20.1084 45.8956 20.6856 43.9125 21.8174C42.0068 22.918 40.4403 24.5388 39.3902 26.4973C38.2801 28.5617 37.7142 30.884 37.7477 33.2377C37.711 35.6131 38.2941 37.9558 39.4375 40.0267C40.5562 42.0236 42.2178 43.6485 44.2219 44.706C46.1979 45.6934 48.3525 46.2566 50.5511 46.3611C52.7497 46.4653 54.9456 46.1079 57.0034 45.3121C58.6475 44.6402 60.1085 43.5757 61.2644 42.2085L58.741 39.2011C56.9002 41.2704 54.4722 42.3051 51.4575 42.3051C48.9823 42.3051 46.9117 41.618 45.2455 40.2442C44.4276 39.5772 43.7478 38.7517 43.2453 37.8152C42.7429 36.8789 42.4279 35.8501 42.3185 34.7889H62.7874C62.8433 34.3221 62.875 33.8528 62.8823 33.3827C62.9273 30.9874 62.3786 28.6194 61.2874 26.4973C60.2727 24.5447 58.7387 22.9227 56.8608 21.8174ZM42.3181 31.4429C42.497 29.397 43.4226 27.4937 44.9125 26.1095C46.3892 24.7517 48.2218 24.0728 50.4108 24.073C52.5993 24.0732 54.4323 24.76 55.9089 26.1339C57.3883 27.516 58.313 29.4075 58.5034 31.4433L42.3181 31.4429Z" fill="black"/>
<path d="M76.5493 40.9957L67.8856 20.3867H63.125L74.1695 46.0875H78.8346L89.8787 20.3867H85.4034L76.5493 40.9957Z" fill="black"/>
<path d="M109.036 21.8174C107.072 20.6822 104.845 20.1044 102.586 20.1445C100.313 20.1084 98.0717 20.6856 96.0882 21.8174C94.1823 22.9182 92.6162 24.5388 91.5657 26.4973C90.4561 28.5619 89.8901 30.884 89.9235 33.2377C89.8864 35.6131 90.4699 37.956 91.6135 40.0267C92.7318 42.0236 94.3933 43.6487 96.3974 44.706C98.3735 45.6936 100.528 46.257 102.727 46.3611C104.925 46.4648 107.122 46.1075 109.18 45.3109C110.823 44.6391 112.284 43.5748 113.44 42.2076L110.917 39.2013C109.075 41.2706 106.647 42.3055 103.633 42.3055C101.158 42.3055 99.0873 41.6184 97.4213 40.2446C96.6029 39.5776 95.9231 38.7521 95.4208 37.8156C94.918 36.8793 94.6029 35.8505 94.4928 34.7891H114.963C115.019 34.3225 115.051 33.853 115.058 33.3828C115.103 30.9878 114.554 28.6199 113.464 26.4975C112.449 24.5449 110.914 22.9229 109.036 21.8174ZM94.4933 31.4429C94.6726 29.397 95.5983 27.4939 97.0882 26.1095C98.5644 24.7518 100.397 24.073 102.586 24.073C104.776 24.073 106.608 24.7599 108.085 26.1339C109.564 27.516 110.488 29.4076 110.679 31.4433L94.4933 31.4429Z" fill="black"/>
<path d="M124.579 24.7029V20.3866H120.199V46.0876H124.769V33.2849C124.769 30.5048 125.475 28.3634 126.887 26.8601C128.299 25.357 130.243 24.6052 132.719 24.605C133.068 24.6007 133.418 24.6167 133.767 24.6534V20.1426C131.544 20.1426 129.656 20.5304 128.101 21.3062C126.602 22.0281 125.368 23.2179 124.579 24.7029Z" fill="black"/>
<path d="M175.393 5.18416e-09H147.734C146.525 -4.09332e-05 145.328 0.24238 144.212 0.713422C143.095 1.18447 142.081 1.87491 141.227 2.74532C140.372 3.61573 139.694 4.64908 139.232 5.78638C138.769 6.92362 138.531 8.14257 138.531 9.37358V49.3422C138.531 51.8284 139.501 54.2124 141.226 55.9702C142.952 57.728 145.292 58.7156 147.733 58.7156H175.393C177.833 58.7156 180.173 57.728 181.899 55.9702C183.625 54.2124 184.595 51.8284 184.595 49.3422V9.37326C184.595 6.88729 183.625 4.50323 181.9 2.74543C180.174 0.987633 177.833 8.26716e-05 175.393 5.18416e-09ZM154.445 46.0867H149.874V20.3866H154.445V46.0867ZM154.373 14.5428C154.083 14.8383 153.737 15.0704 153.356 15.2247C152.976 15.379 152.568 15.4522 152.158 15.4399C151.751 15.4528 151.345 15.3822 150.965 15.2323C150.584 15.0824 150.238 14.8561 149.945 14.5671C149.66 14.2936 149.435 13.9626 149.284 13.5953C149.132 13.2279 149.057 12.8323 149.064 12.4339C149.058 12.032 149.134 11.6332 149.285 11.262C149.437 10.8909 149.661 10.5553 149.945 10.276C150.234 9.9805 150.58 9.74844 150.961 9.59413C151.341 9.43986 151.749 9.36656 152.158 9.37885C152.978 9.35225 153.773 9.65739 154.373 10.2274C154.657 10.4954 154.884 10.8221 155.035 11.1858C155.187 11.5496 155.262 11.9421 155.253 12.3372C155.262 12.7467 155.189 13.1535 155.037 13.5328C154.885 13.9121 154.659 14.2558 154.373 14.5428ZM173.675 45.917C172.688 46.2243 171.662 46.3798 170.629 46.3775C168.09 46.3775 166.122 45.6823 164.726 44.2922C163.329 42.9022 162.631 40.914 162.631 38.3282V24.2173H158.347V20.3866H162.631V14.761H167.201V20.3858H174.437V24.2172H167.201V38.1349C167.201 39.525 167.542 40.5918 168.224 41.3352C168.907 42.0786 169.883 42.4504 171.152 42.4506C172.445 42.4859 173.709 42.0566 174.723 41.2378L176.151 44.584C175.425 45.1981 174.582 45.6518 173.675 45.917Z" fill="black"/>
</svg>
