<svg width="200" height="200" viewBox="0 0 200 200" fill="none" xmlns="http://www.w3.org/2000/svg">
<g filter="url(#filter0_ii_63_3287)">
<mask id="mask0_63_3287" style="mask-type:luminance" maskUnits="userSpaceOnUse" x="0" y="0" width="200" height="200">
<path d="M200 100C200 44.7715 155.228 0 100 0C44.7715 0 0 44.7715 0 100C0 155.228 44.7715 200 100 200C155.228 200 200 155.228 200 100Z" fill="white"/>
</mask>
<g mask="url(#mask0_63_3287)">
<path d="M200 100C200 44.7715 155.228 0 100 0C44.7715 0 0 44.7715 0 100C0 155.228 44.7715 200 100 200C155.228 200 200 155.228 200 100Z" fill="#EE1145"/>
<g filter="url(#filter1_f_63_3287)">
<path d="M86.5592 -48.3871H55.3764C12.3217 -48.3871 -22.5806 -13.4845 -22.5806 29.5699V60.7527C-22.5806 103.807 12.3217 138.71 55.3764 138.71H86.5592C129.614 138.71 164.516 103.807 164.516 60.7527V29.5699C164.516 -13.4845 129.614 -48.3871 86.5592 -48.3871Z" fill="#17BBCD"/>
</g>
<g filter="url(#filter2_f_63_3287)">
<path d="M199.731 -64.5161H171.236C131.894 -64.5161 100 -32.6225 100 6.72044V35.2151C100 74.5582 131.894 106.452 171.236 106.452H199.731C239.073 106.452 270.968 74.5582 270.968 35.2151V6.72044C270.968 -32.6225 239.073 -64.5161 199.731 -64.5161Z" fill="#FF0F39"/>
</g>
<g filter="url(#filter3_f_63_3287)">
<path d="M171.161 90.3226H135.161C85.4558 90.3226 45.1614 130.617 45.1614 180.323V216.323C45.1614 266.028 85.4558 306.321 135.161 306.321H171.161C220.867 306.321 261.162 266.028 261.162 216.323V180.323C261.162 130.617 220.867 90.3226 171.161 90.3226Z" fill="#0027DE"/>
</g>
</g>
<path d="M41.9355 83.7772V126.677C41.9355 138.493 53.6237 148.083 68.0566 148.083V85.0528C68.0566 84.1662 68.9268 83.4529 70.0089 83.4529H82.1325C83.2143 83.4529 84.0845 84.1662 84.0845 85.0528V148.083H109.677V83.7772C109.677 71.1923 97.2244 60.9863 81.8683 60.9863H69.745C54.3894 60.9863 41.9355 71.1923 41.9355 83.7772Z" fill="#F9F9F9"/>
<path d="M116.454 123.093V144.649C116.454 146.714 118.69 148.387 121.449 148.387H140.49C143.249 148.387 145.486 146.714 145.486 144.649V123.093C145.486 121.029 143.249 119.355 140.49 119.355H121.449C118.69 119.355 116.454 121.029 116.454 123.093Z" fill="#F9F9F9"/>
<path opacity="0.38" d="M116.129 99.9696V125.229C116.129 127.161 118.365 128.728 121.125 128.728H140.165C142.925 128.728 145.161 127.161 145.161 125.229V99.9696C145.161 98.0366 142.925 96.4702 140.165 96.4702H121.125C118.365 96.4702 116.129 98.0366 116.129 99.9696Z" fill="#F9F9F9"/>
<path d="M136.461 83.612L135.568 85.6645C135.428 85.9986 135.193 86.2844 134.891 86.4848C134.59 86.6859 134.236 86.7928 133.873 86.7928C133.511 86.7928 133.157 86.6859 132.855 86.4848C132.553 86.2844 132.318 85.9986 132.178 85.6645L131.286 83.612C129.716 79.9812 126.842 77.0703 123.229 75.4531L120.475 74.2236C120.14 74.0703 119.858 73.8242 119.659 73.5144C119.461 73.2052 119.355 72.8453 119.355 72.4779C119.355 72.1103 119.461 71.7506 119.659 71.4409C119.858 71.1316 120.14 70.8855 120.475 70.7317L123.077 69.5749C126.78 67.9122 129.704 64.8933 131.246 61.1407L132.164 58.925C132.299 58.5816 132.534 58.287 132.839 58.0793C133.144 57.8717 133.504 57.7605 133.873 57.7605C134.242 57.7605 134.603 57.8717 134.908 58.0793C135.212 58.287 135.448 58.5816 135.583 58.925L136.501 61.1369C138.041 64.8903 140.964 67.9103 144.666 69.5749L147.272 70.7354C147.605 70.8893 147.887 71.1353 148.085 71.4446C148.282 71.7538 148.387 72.1129 148.387 72.4795C148.387 72.8463 148.282 73.2054 148.085 73.5144C147.887 73.8237 147.605 74.0697 147.272 74.2236L144.514 75.4494C140.902 77.0679 138.029 79.9804 136.461 83.612Z" fill="#F0C11E"/>
<path d="M152.764 53.425L152.367 54.3371C152.305 54.4856 152.2 54.6125 152.066 54.7017C151.932 54.7912 151.775 54.8387 151.614 54.8387C151.453 54.8387 151.295 54.7912 151.161 54.7017C151.027 54.6125 150.922 54.4856 150.861 54.3371L150.464 53.425C149.766 51.8112 148.489 50.5174 146.883 49.7988L145.659 49.2522C145.51 49.1842 145.385 49.0747 145.296 48.9371C145.208 48.7998 145.161 48.6399 145.161 48.4763C145.161 48.313 145.208 48.1531 145.296 48.0158C145.385 47.8782 145.51 47.7687 145.659 47.7004L146.815 47.1863C148.461 46.4471 149.761 45.1055 150.446 43.4375L150.854 42.4531C150.914 42.3004 151.019 42.1695 151.154 42.0771C151.29 41.985 151.45 41.9355 151.614 41.9355C151.778 41.9355 151.938 41.985 152.074 42.0771C152.209 42.1695 152.314 42.3004 152.374 42.4531L152.782 43.4358C153.466 45.1041 154.765 46.4463 156.411 47.1863L157.569 47.7021C157.717 47.7705 157.842 47.8797 157.93 48.0172C158.018 48.1545 158.065 48.3141 158.065 48.4772C158.065 48.6402 158.018 48.7998 157.93 48.9371C157.842 49.0744 157.717 49.1839 157.569 49.2522L156.343 49.797C154.738 50.5165 153.461 51.8109 152.764 53.425Z" fill="#F0C11E"/>
<path d="M108.928 60.2301L108.63 60.9143C108.583 61.0258 108.505 61.1206 108.404 61.1877C108.304 61.2548 108.186 61.2903 108.065 61.2903C107.944 61.2903 107.826 61.2548 107.726 61.1877C107.625 61.1206 107.546 61.0258 107.5 60.9143L107.202 60.2301C106.679 59.0199 105.721 58.0492 104.517 57.5103L103.599 57.1007C103.487 57.0495 103.393 56.9674 103.327 56.8641C103.261 56.7612 103.226 56.6409 103.226 56.5184C103.226 56.3962 103.261 56.276 103.327 56.173C103.393 56.0701 103.487 55.9876 103.599 55.9368L104.466 55.551C105.701 54.9968 106.675 53.9906 107.189 52.7397L107.495 52.001C107.54 51.8866 107.618 51.7882 107.72 51.7191C107.822 51.6501 107.942 51.6129 108.065 51.6129C108.188 51.6129 108.308 51.6501 108.41 51.7191C108.511 51.7882 108.59 51.8866 108.635 52.001L108.941 52.7384C109.454 53.9896 110.429 54.9961 111.662 55.551L112.531 55.9378C112.642 55.9893 112.736 56.0714 112.802 56.174C112.868 56.2773 112.903 56.3969 112.903 56.5191C112.903 56.6413 112.868 56.7615 112.802 56.8641C112.736 56.9671 112.642 57.0492 112.531 57.1007L111.612 57.5093C110.408 58.0486 109.45 59.0196 108.928 60.2301Z" fill="#F0C11E"/>
</g>
<defs>
<filter id="filter0_ii_63_3287" x="-16" y="-16" width="224" height="224" filterUnits="userSpaceOnUse" color-interpolation-filters="sRGB">
<feFlood flood-opacity="0" result="BackgroundImageFix"/>
<feBlend mode="normal" in="SourceGraphic" in2="BackgroundImageFix" result="shape"/>
<feColorMatrix in="SourceAlpha" type="matrix" values="0 0 0 0 0 0 0 0 0 0 0 0 0 0 0 0 0 0 127 0" result="hardAlpha"/>
<feOffset dx="8" dy="8"/>
<feGaussianBlur stdDeviation="9"/>
<feComposite in2="hardAlpha" operator="arithmetic" k2="-1" k3="1"/>
<feColorMatrix type="matrix" values="0 0 0 0 1 0 0 0 0 0.998854 0 0 0 0 0.982809 0 0 0 0.25 0"/>
<feBlend mode="normal" in2="shape" result="effect1_innerShadow_63_3287"/>
<feColorMatrix in="SourceAlpha" type="matrix" values="0 0 0 0 0 0 0 0 0 0 0 0 0 0 0 0 0 0 127 0" result="hardAlpha"/>
<feOffset dx="-16" dy="-16"/>
<feGaussianBlur stdDeviation="10"/>
<feComposite in2="hardAlpha" operator="arithmetic" k2="-1" k3="1"/>
<feColorMatrix type="matrix" values="0 0 0 0 0 0 0 0 0 0 0 0 0 0 0 0 0 0 0.6 0"/>
<feBlend mode="normal" in2="effect1_innerShadow_63_3287" result="effect2_innerShadow_63_3287"/>
</filter>
<filter id="filter1_f_63_3287" x="-92.5806" y="-118.387" width="327.097" height="327.097" filterUnits="userSpaceOnUse" color-interpolation-filters="sRGB">
<feFlood flood-opacity="0" result="BackgroundImageFix"/>
<feBlend mode="normal" in="SourceGraphic" in2="BackgroundImageFix" result="shape"/>
<feGaussianBlur stdDeviation="35" result="effect1_foregroundBlur_63_3287"/>
</filter>
<filter id="filter2_f_63_3287" x="-29.0323" y="-193.548" width="429.032" height="429.032" filterUnits="userSpaceOnUse" color-interpolation-filters="sRGB">
<feFlood flood-opacity="0" result="BackgroundImageFix"/>
<feBlend mode="normal" in="SourceGraphic" in2="BackgroundImageFix" result="shape"/>
<feGaussianBlur stdDeviation="64.5161" result="effect1_foregroundBlur_63_3287"/>
</filter>
<filter id="filter3_f_63_3287" x="-89.3548" y="-44.1936" width="485.033" height="485.031" filterUnits="userSpaceOnUse" color-interpolation-filters="sRGB">
<feFlood flood-opacity="0" result="BackgroundImageFix"/>
<feBlend mode="normal" in="SourceGraphic" in2="BackgroundImageFix" result="shape"/>
<feGaussianBlur stdDeviation="67.2581" result="effect1_foregroundBlur_63_3287"/>
</filter>
</defs>
</svg>
