<svg width="296" height="62" viewBox="0 0 296 62" fill="none" xmlns="http://www.w3.org/2000/svg">
<mask id="mask0_5_34" style="mask-type:luminance" maskUnits="userSpaceOnUse" x="0" y="0" width="62" height="62">
<path d="M62 31C62 13.8792 48.1208 0 31 0C13.8792 0 0 13.8792 0 31C0 48.1208 13.8792 62 31 62C48.1208 62 62 48.1208 62 31Z" fill="white"/>
</mask>
<g mask="url(#mask0_5_34)">
<path d="M62 31C62 13.8792 48.1208 0 31 0C13.8792 0 0 13.8792 0 31C0 48.1208 13.8792 62 31 62C48.1208 62 62 48.1208 62 31Z" fill="#EE1145"/>
<g filter="url(#filter0_f_5_34)">
<path d="M12.6667 5H5.33333C-4.79195 5 -13 13.2081 -13 23.3333V30.6667C-13 40.7919 -4.79195 49 5.33333 49H12.6667C22.7919 49 31 40.7919 31 30.6667V23.3333C31 13.2081 22.7919 5 12.6667 5Z" fill="#17BBCD"/>
</g>
<g filter="url(#filter1_f_5_34)">
<path d="M61.9165 -20H53.0832C40.887 -20 31 -10.113 31 2.08333V10.9167C31 23.113 40.887 33 53.0832 33H61.9165C74.1127 33 84 23.113 84 10.9167V2.08333C84 -10.113 74.1127 -20 61.9165 -20Z" fill="#FF0F39"/>
</g>
<g filter="url(#filter2_f_5_34)">
<path d="M53.06 28H41.9C26.4913 28 14 40.4913 14 55.9V67.06C14 82.4687 26.4913 94.9595 41.9 94.9595H53.06C68.4687 94.9595 80.9604 82.4687 80.9604 67.06V55.9C80.9604 40.4913 68.4687 28 53.06 28Z" fill="#0027DE"/>
</g>
</g>
<path d="M13 25.9709V39.2698C13 42.9329 16.6233 45.9058 21.0975 45.9058V26.3664C21.0975 26.0915 21.3673 25.8704 21.7027 25.8704H25.4611C25.7964 25.8704 26.0662 26.0915 26.0662 26.3664V45.9058H34V25.9709C34 22.0696 30.1395 18.9058 25.3792 18.9058H21.6209C16.8607 18.9058 13 22.0696 13 25.9709Z" fill="#F9F9F9"/>
<path d="M36.1006 38.1588V44.8413C36.1006 45.4812 36.7938 46 37.6493 46H43.5518C44.4073 46 45.1006 45.4812 45.1006 44.8413V38.1588C45.1006 37.5189 44.4073 37 43.5518 37H37.6493C36.7938 37 36.1006 37.5189 36.1006 38.1588Z" fill="#F9F9F9"/>
<path opacity="0.38" d="M36 30.9906V38.8209C36 39.42 36.6932 39.9058 37.5487 39.9058H43.4512C44.3067 39.9058 45 39.42 45 38.8209V30.9906C45 30.3914 44.3067 29.9058 43.4512 29.9058H37.5487C36.6932 29.9058 36 30.3914 36 30.9906Z" fill="#F9F9F9"/>
<path d="M42.3028 25.9197L42.026 26.556C41.9827 26.6596 41.9098 26.7482 41.8163 26.8103C41.7228 26.8726 41.613 26.9058 41.5007 26.9058C41.3883 26.9058 41.2785 26.8726 41.185 26.8103C41.0915 26.7482 41.0186 26.6596 40.9752 26.556L40.6985 25.9197C40.2119 24.7942 39.3208 23.8918 38.201 23.3905L37.3471 23.0093C37.2435 22.9618 37.1558 22.8855 37.0943 22.7895C37.0327 22.6936 37 22.582 37 22.4682C37 22.3542 37.0327 22.2427 37.0943 22.1467C37.1558 22.0508 37.2435 21.9745 37.3471 21.9268L38.1538 21.5682C39.3017 21.0528 40.2081 20.1169 40.6861 18.9536L40.9707 18.2668C41.0126 18.1603 41.0855 18.069 41.18 18.0046C41.2745 17.9402 41.3863 17.9058 41.5007 17.9058C41.615 17.9058 41.7268 17.9402 41.8213 18.0046C41.9158 18.069 41.9888 18.1603 42.0306 18.2668L42.3152 18.9525C42.7927 20.116 43.6988 21.0522 44.8464 21.5682L45.6542 21.928C45.7574 21.9757 45.845 22.052 45.9062 22.1478C45.9675 22.2437 46 22.355 46 22.4687C46 22.5824 45.9675 22.6937 45.9062 22.7895C45.845 22.8853 45.7574 22.9616 45.6542 23.0093L44.7992 23.3893C43.6797 23.8911 42.7888 24.7939 42.3028 25.9197Z" fill="#FAC31E"/>
<path d="M47.3567 16.5618L47.2338 16.8445C47.2145 16.8906 47.1821 16.9299 47.1405 16.9575C47.099 16.9853 47.0503 17 47.0003 17C46.9503 17 46.9015 16.9853 46.8599 16.9575C46.8184 16.9299 46.7859 16.8906 46.7668 16.8445L46.6437 16.5618C46.4275 16.0615 46.0315 15.6604 45.5338 15.4376L45.1543 15.2682C45.1082 15.2471 45.0692 15.2132 45.0418 15.1705C45.0145 15.1279 45 15.0784 45 15.0277C45 14.977 45.0145 14.9275 45.0418 14.8849C45.0692 14.8422 45.1082 14.8083 45.1543 14.7871L45.5128 14.6277C46.023 14.3986 46.4258 13.9827 46.6382 13.4656L46.7648 13.1604C46.7833 13.1131 46.8158 13.0725 46.8578 13.0439C46.8998 13.0154 46.9494 13 47.0003 13C47.0511 13 47.1008 13.0154 47.1428 13.0439C47.1849 13.0725 47.2172 13.1131 47.2358 13.1604L47.3623 13.4651C47.5745 13.9823 47.9771 14.3983 48.4873 14.6277L48.8463 14.7877C48.8922 14.8088 48.931 14.8427 48.9583 14.8853C48.9855 14.9279 49 14.9774 49 15.0279C49 15.0785 48.9855 15.1279 48.9583 15.1705C48.931 15.2131 48.8922 15.247 48.8463 15.2682L48.4663 15.4371C47.9687 15.6601 47.5728 16.0614 47.3567 16.5618Z" fill="#FAC31E"/>
<path d="M33.7676 18.6713L33.6753 18.8834C33.6608 18.918 33.6366 18.9474 33.6054 18.9682C33.5741 18.989 33.5376 19 33.5001 19C33.4626 19 33.4261 18.989 33.3949 18.9682C33.3637 18.9474 33.3394 18.918 33.325 18.8834L33.2327 18.6713C33.0706 18.2962 32.7734 17.9953 32.4002 17.8282L32.1156 17.7012C32.0811 17.6854 32.0518 17.6599 32.0313 17.6279C32.0108 17.596 32 17.5587 32 17.5207C32 17.4828 32.0108 17.4456 32.0313 17.4136C32.0518 17.3817 32.0811 17.3562 32.1156 17.3404L32.3844 17.2208C32.7672 17.049 33.0693 16.7371 33.2287 16.3493L33.3234 16.1203C33.3375 16.0848 33.3617 16.0543 33.3933 16.0329C33.4247 16.0115 33.462 16 33.5001 16C33.5383 16 33.5756 16.0115 33.607 16.0329C33.6385 16.0543 33.6628 16.0848 33.6768 16.1203L33.7716 16.3489C33.9308 16.7368 34.2328 17.0488 34.6154 17.2208L34.8845 17.3407C34.919 17.3567 34.9482 17.3821 34.9687 17.4139C34.989 17.446 35 17.483 35 17.5209C35 17.5588 34.989 17.5961 34.9687 17.6279C34.9482 17.6598 34.919 17.6853 34.8845 17.7012L34.5996 17.8279C34.2265 17.9951 33.9295 18.2961 33.7676 18.6713Z" fill="#FAC31E"/>
<path d="M73.3164 49V12.6914H88.043C95.457 12.6914 99.1641 15.9329 99.1641 22.416C99.1641 29.4746 94.0944 33.7826 83.9551 35.3398L82.9902 31.3789C90.4382 30.2786 94.1621 27.3587 94.1621 22.6191C94.1621 18.5905 91.9785 16.5762 87.6113 16.5762H78.0137V49H73.3164ZM127.881 22.3398V49H124.656L123.844 45.5977C120.611 47.8659 117.361 49 114.094 49C107.966 49 104.902 45.6908 104.902 39.0723V22.3398H109.6V39.1484C109.6 43.1094 111.563 45.0898 115.49 45.0898C118.182 45.0898 120.746 43.9642 123.184 41.7129V22.3398H127.881ZM140.475 12.6914V49H135.777V12.6914H140.475ZM147.609 22.3398H168.43V26.1484L152.51 45.4453H167.922V49H147.102V45.4453L163.225 26.1484H147.609V22.3398ZM185.771 22.3398C193.355 22.3398 197.146 26.0892 197.146 33.5879C197.146 34.6543 197.07 35.7969 196.918 37.0156H178.205C178.205 42.4661 181.387 45.1914 187.752 45.1914C190.782 45.1914 193.473 44.8529 195.826 44.1758V47.9844C193.473 48.6615 190.613 49 187.244 49C178.087 49 173.508 44.4551 173.508 35.3652C173.508 26.6816 177.596 22.3398 185.771 22.3398ZM178.205 33.1055H192.627C192.525 28.4336 190.24 26.0977 185.771 26.0977C181.032 26.0977 178.51 28.4336 178.205 33.1055ZM203.469 49V22.3398H206.643L207.48 25.7422C210.206 23.474 213.202 22.3398 216.469 22.3398C223.121 22.3398 226.447 25.6491 226.447 32.2676V49H221.75V32.1914C221.75 28.2305 219.778 26.25 215.834 26.25C213.143 26.25 210.587 27.3757 208.166 29.627V49H203.469ZM249.248 49H242.342L257.754 12.6914H264.99L280.732 49H273.496L269.357 39.0977H257.297L259.607 33.2578H266.92L261.207 19.623L249.248 49ZM291.904 12.6914V49H285.176V12.6914H291.904Z" fill="white"/>
<defs>
<filter id="filter0_f_5_34" x="-34.7" y="-16.7" width="87.4" height="87.4" filterUnits="userSpaceOnUse" color-interpolation-filters="sRGB">
<feFlood flood-opacity="0" result="BackgroundImageFix"/>
<feBlend mode="normal" in="SourceGraphic" in2="BackgroundImageFix" result="shape"/>
<feGaussianBlur stdDeviation="10.85" result="effect1_foregroundBlur_5_34"/>
</filter>
<filter id="filter1_f_5_34" x="-9" y="-60" width="133" height="133" filterUnits="userSpaceOnUse" color-interpolation-filters="sRGB">
<feFlood flood-opacity="0" result="BackgroundImageFix"/>
<feBlend mode="normal" in="SourceGraphic" in2="BackgroundImageFix" result="shape"/>
<feGaussianBlur stdDeviation="20" result="effect1_foregroundBlur_5_34"/>
</filter>
<filter id="filter2_f_5_34" x="-27.7" y="-13.7" width="150.36" height="150.36" filterUnits="userSpaceOnUse" color-interpolation-filters="sRGB">
<feFlood flood-opacity="0" result="BackgroundImageFix"/>
<feBlend mode="normal" in="SourceGraphic" in2="BackgroundImageFix" result="shape"/>
<feGaussianBlur stdDeviation="20.85" result="effect1_foregroundBlur_5_34"/>
</filter>
</defs>
</svg>
